<svg width="1920" height="540" viewBox="0 0 1920 540" fill="none" xmlns="http://www.w3.org/2000/svg">
<path d="M960 0H0V540H960H1920V0H960Z" fill="#FF6450"/>
<g opacity="0.25">
<mask id="mask0_2_2468" style="mask-type:luminance" maskUnits="userSpaceOnUse" x="0" y="0" width="1920" height="540">
<path d="M960 0H0V540H960H1920V0H960Z" fill="white"/>
</mask>
<g mask="url(#mask0_2_2468)">
<path d="M910.2 -2.1001C908.8 -8.2001 901.1 -8.8999 894.5 -8.8999C891 -8.8999 887 -8.5999 883.2 -8.3999C879.4 -8.1999 875.5 -7.8999 871.9 -7.8999C866.1 -7.8999 862.4 -8.6001 860.3 -10.1001C856.2 -13.1001 853.9 -22.2001 851.6 -31.1001C848.4 -43.4001 845.4 -55 837.4 -55C829.1 -55 825.7 -42.4002 822.4 -30.2002C820.2 -21.9002 817.9 -13.3 814.3 -10C812.3 -8.1 808.5 -7.2998 802.3 -7.2998C798.9 -7.2998 795 -7.5998 791.3 -7.7998C787.6 -8.0998 783.7 -8.2998 780.2 -8.2998C774.2 -8.2998 767 -7.5998 764.7 -2.2998C761.4 5.5002 772.6 12.7002 783.4 19.7002C790.7 24.4002 798.3 29.3002 800.3 33.7002C802.5 38.4002 798.8 47.4998 795.3 56.2998C790.8 67.5998 786.5 78.2002 792.3 83.2002C793.7 84.4002 795.3 85 797.2 85C803.3 85 810.9 78.8002 819 72.2002C825.8 66.7002 832.7 60.9999 837.5 60.3999C842.7 59.7999 850.2 66.1002 857.4 72.2002C864.9 78.5002 872.1 84.5 878.1 84.5C879.6 84.5 880.9 84.0999 882.1 83.3999C889.3 79.0999 884.5 66.6001 879.9 54.6001C876.8 46.5001 873.5 38.0998 874.4 33.2998C875.4 28.1998 883.7 23 891.7 18C902.2 11.5 911.9 5.3999 910.2 -2.1001Z" fill="#FFD3C7"/>
<path d="M509.7 180C509.7 192.4 505.3 203.9 497.8 213.2C501.8 214.5 505.8 215.4 509.7 215.4C522.5 215.4 533.6 209.2 540.2 198.1C541.5 195.4 544.2 193.7 547.3 193.7C550.4 193.7 553.1 195 554.8 197.2C567.6 214 588.9 224.2 611.4 224.2C641.5 224.2 668 206.1 677.3 180C668 153.9 641.5 135.8 611.4 135.8C588.8 135.8 567.6 145.5 554.8 162.8C553 165.5 550.4 166.3 547.3 166.3C544.2 165.9 541.5 164.5 540.2 161.9C533.6 151.3 522.1 144.6 509.7 144.6C505.7 144.6 501.3 145.5 497.8 146.8C505.3 156.1 509.7 167.6 509.7 180Z" fill="#FFD3C7"/>
<path d="M424.4 73.5C423.1 73.5 422 74.5999 422 75.8999C422 81.6999 417.3 86.3999 411.5 86.3999C405.7 86.3999 401 81.6999 401 75.8999V41.2002H417.3C421.6 41.2002 425.1 37.4001 424.5 33.1001C420.5 0.400097 392.6 -25 358.8 -25C325 -25 297.1 0.400097 293.1 33.1001C292.6 37.4001 296 41.2002 300.3 41.2002H316.6V75.8999C316.6 81.6999 311.9 86.3999 306.1 86.3999C300.3 86.3999 295.6 81.6999 295.6 75.8999C295.6 74.5999 294.5 73.5 293.2 73.5C291.9 73.5 290.8 74.5999 290.8 75.8999C290.8 84.2999 297.6 91.1001 306 91.1001C314.4 91.1001 321.2 84.2999 321.2 75.8999V41.2002H345.1V103.5C345.1 109.3 340.4 114 334.6 114C328.8 114 324.1 109.3 324.1 103.5C324.1 102.2 323 101.1 321.7 101.1C320.4 101.1 319.3 102.2 319.3 103.5C319.3 111.9 326.1 118.7 334.5 118.7C342.9 118.7 349.7 111.9 349.7 103.5V41.2002H368.2V103.5C368.2 111.9 375 118.7 383.4 118.7C391.8 118.7 398.6 111.9 398.6 103.5C398.6 102.2 397.5 101.1 396.2 101.1C394.9 101.1 393.8 102.2 393.8 103.5C393.8 109.3 389.1 114 383.3 114C377.5 114 372.8 109.3 372.8 103.5V41.2002H395.9V75.8999C395.9 84.2999 402.7 91.1001 411.1 91.1001C419.5 91.1001 426.3 84.2999 426.3 75.8999C426.8 74.4999 425.7 73.5 424.4 73.5Z" fill="#FFD3C7"/>
<path d="M587.9 565.2C588.4 556.2 589 538.6 588.7 518.9C588 483.7 584.3 456.7 577.8 440.6C575.8 440 573.7 439.3 571.6 438.5C565.9 436.3 560.1 434.1 554 435.8L553.8 435.9C548.2 437.5 544.9 442.2 541.6 446.8C539.5 449.8 537.5 452.7 534.9 454.5C533.3 455.7 531.5 456.6 529.5 457.4C531.9 474.5 543.3 499.4 562.7 529.4C572.8 544.9 582.6 558.3 587.9 565.2Z" fill="#FFD3C7"/>
<path d="M592.8 560.7L606.8 533.6C614.6 518.5 620.2 502.3 623.2 485.5L628 462.7C627.7 462.4 627.3 462.2 627 461.9C624.5 459.5 622.6 456.2 620.7 452.6C617.8 447.3 614.7 441.9 609 439.2C603.6 436.7 597.9 438.2 592.5 439.7C589.2 440.6 586.1 441.4 583.2 441.3C595.2 474.9 594 535.7 592.8 560.7Z" fill="#FFD3C7"/>
<path d="M584.1 571.7L552 553C536.9 544.2 523.2 533.2 511.3 520.3L500.2 507.4C497.5 511.9 495.3 516.6 496.1 521.9C497.3 529.7 504.4 537.9 517.2 546.1C523.1 549.9 530 553.5 537.1 556.7V556.8L583.1 571.6C583.5 571.6 583.8 571.6 584.1 571.7Z" fill="#FFD3C7"/>
<path d="M554.4 548.9L581.6 564.7C576 557.2 567.4 545.4 558.7 531.8C539.1 501.3 527.7 476.8 524.9 458.8C524.8 458.8 524.7 458.9 524.6 458.9C518.9 460.9 512.9 462.9 509.3 468.1C505.9 473 506.4 478.8 506.9 484.4C507.2 488.1 507.5 491.5 506.7 494.6C506 497.5 504.4 500.3 502.6 503.2L514.8 517C526.4 529.6 539.7 540.3 554.4 548.9Z" fill="#FFD3C7"/>
<path d="M648.9 477.6C646.8 471.8 641.2 469.4 635.8 467C634.6 466.5 633.4 465.9 632.3 465.4L627.9 486.5C624.8 503.7 619.1 520.3 611.1 535.9L594.1 568.7L635 521.9C638 517.3 640.7 512.8 642.9 508.4C649.6 495.1 651.6 484.8 648.9 477.6Z" fill="#FFD3C7"/>
<path d="M625.1 551.9C632.5 548.6 636.4 542 634.7 535.9L633.3 531L609.4 558.3C614.5 556.4 619.7 554.3 625.1 551.9Z" fill="#FFD3C7"/>
<path d="M292.8 215C273.3 195.5 242.3 194.2 221.2 211.1C224 186.7 244.7 167.7 269.8 167.7C271.1 167.7 272.2 166.6 272.2 165.3C272.2 164 271.1 162.9 269.8 162.9C245 162.9 224.1 179.8 217.9 202.7C211.8 179.8 190.8 162.9 166 162.9C164.7 162.9 163.6 164 163.6 165.3C163.6 166.6 164.7 167.7 166 167.7C191.1 167.7 211.8 186.7 214.6 211.1C193.5 194.2 162.6 195.5 143 215C142.1 215.9 142.1 217.4 143 218.4C143.9 219.3 145.4 219.3 146.4 218.4C164.1 200.7 192.1 199.4 211.3 214.6C184.5 216.8 163.6 233.3 163.6 253.3C163.6 254.6 164.7 255.7 166 255.7C167.3 255.7 168.4 254.6 168.4 253.3C168.4 234.7 189.7 219.6 216.1 219.1V315.3C216.1 316.6 217.2 317.7 218.5 317.7C219.8 317.7 220.9 316.6 220.9 315.3V219.1C246.8 220 267.5 235 267.5 253.3C267.5 254.6 268.6 255.7 269.9 255.7C271.2 255.7 272.3 254.6 272.3 253.3C272.3 233.3 251.4 216.8 224.6 214.6C243.8 199.4 271.8 200.7 289.5 218.4C290 218.9 290.6 219.1 291.2 219.1C291.8 219.1 292.4 218.9 292.9 218.4C293.7 217.5 293.7 216 292.8 215Z" fill="#FFD3C7"/>
<path d="M180.8 -12.7002C179.5 -12.7002 178.4 -11.5998 178.4 -10.2998C178.4 -3.7998 173.1 1.5 166.6 1.5C160.1 1.5 154.8 -3.7998 154.8 -10.2998C154.8 -11.5998 153.7 -12.7002 152.4 -12.7002C151.1 -12.7002 150 -11.5998 150 -10.2998C150 -3.7998 144.7 1.5 138.2 1.5C131.7 1.5 126.4 -3.7998 126.4 -10.2998C126.4 -11.5998 125.3 -12.7002 124 -12.7002C122.7 -12.7002 121.6 -11.5998 121.6 -10.2998C121.6 -3.7998 116.3 1.5 109.8 1.5C103.3 1.5 98 -3.7998 98 -10.2998C98 -11.5998 96.9 -12.7002 95.6 -12.7002C94.3 -12.7002 93.2 -11.5998 93.2 -10.2998C93.2 -3.7998 87.9 1.5 81.4 1.5C74.9 1.5 69.6 -3.7998 69.6 -10.2998C69.6 -11.5998 68.5 -12.7002 67.2 -12.7002C65.9 -12.7002 64.8 -11.5998 64.8 -10.2998C64.8 -3.7998 59.5 1.5 53 1.5C46.5 1.5 41.2 -3.7998 41.2 -10.2998C41.2 -11.5998 40.1 -12.7002 38.8 -12.7002C37.5 -12.7002 36.4 -11.5998 36.4 -10.2998C36.4 -3.7998 31.1 1.5 24.6 1.5C18.1 1.5 12.8 -3.7998 12.8 -10.2998C12.8 -11.5998 11.7 -12.7002 10.4 -12.7002C9.1 -12.7002 8 -11.5998 8 -10.2998C8 -1.1998 15.4 6.2998 24.6 6.2998C30.6 6.2998 35.9 3.0002 38.8 -1.7998C41.7 3.0002 47 6.2998 53 6.2998C59 6.2998 64.3 3.0002 67.2 -1.7998C70.1 3.0002 75.4 6.2998 81.4 6.2998C87.4 6.2998 92.7 3.0002 95.6 -1.7998C98.5 3.0002 103.8 6.2998 109.8 6.2998C115.8 6.2998 121.1 3.0002 124 -1.7998C126.9 3.0002 132.2 6.2998 138.2 6.2998C144.2 6.2998 149.5 3.0002 152.4 -1.7998C155.3 3.0002 160.6 6.2998 166.6 6.2998C175.7 6.2998 183.2 -1.0998 183.2 -10.2998C183.2 -11.5998 182.1 -12.7002 180.8 -12.7002Z" fill="#FFD3C7"/>
<path d="M180.8 18.1001C179.5 18.1001 178.4 19.2 178.4 20.5C178.4 27 173.1 32.2998 166.6 32.2998C160.1 32.2998 154.8 27 154.8 20.5C154.8 19.2 153.7 18.1001 152.4 18.1001C151.1 18.1001 150 19.2 150 20.5C150 27 144.7 32.2998 138.2 32.2998C131.7 32.2998 126.4 27 126.4 20.5C126.4 19.2 125.3 18.1001 124 18.1001C122.7 18.1001 121.6 19.2 121.6 20.5C121.6 27 116.3 32.2998 109.8 32.2998C103.3 32.2998 98 27 98 20.5C98 19.2 96.9 18.1001 95.6 18.1001C94.3 18.1001 93.2 19.2 93.2 20.5C93.2 27 87.9 32.2998 81.4 32.2998C74.9 32.2998 69.6 27 69.6 20.5C69.6 19.2 68.5 18.1001 67.2 18.1001C65.9 18.1001 64.8001 19.2 64.8001 20.5C64.8001 27 59.5 32.2998 53 32.2998C46.5 32.2998 41 27 41 20.5C41 19.2 39.9 18.1001 38.6 18.1001C37.3 18.1001 36.2001 19.2 36.2001 20.5C36.2001 27 30.9 32.2998 24.4 32.2998C17.9 32.2998 12.6 27 12.6 20.5C12.6 19.2 11.5 18.1001 10.2 18.1001C8.90005 18.1001 7.80005 19.2 7.80005 20.5C7.80005 29.6 15.2 37.1001 24.4 37.1001C30.4 37.1001 35.7 33.8 38.6 29C41.5 33.8 46.8 37.1001 52.8 37.1001C58.8 37.1001 64.1 33.8 67 29C69.9 33.8 75.2 37.1001 81.2 37.1001C87.2 37.1001 92.5 33.8 95.4 29C98.3 33.8 103.6 37.1001 109.6 37.1001C115.6 37.1001 120.9 33.8 123.8 29C126.7 33.8 132 37.1001 138 37.1001C144 37.1001 149.3 33.8 152.2 29C155.1 33.8 160.4 37.1001 166.4 37.1001C175.5 37.1001 183 29.7 183 20.5C183.2 19.2 182.1 18.1001 180.8 18.1001Z" fill="#FFD3C7"/>
<path d="M-56.5 350.8C-51.4 350.8 -48.9 354 -46 357.8C-42.8 361.9 -39.1 366.6 -31.7 366.6C-24.3 366.6 -20.7 361.9 -17.4 357.8C-14.5 354 -11.9 350.8 -6.9 350.8C-1.9 350.8 0.699998 354 3.6 357.8C6.8 361.9 10.5 366.6 17.9 366.6C25.3 366.6 28.9 361.9 32.2 357.8C35.1 354 37.7 350.8 42.7 350.8C47.7 350.8 50.3 354 53.2 357.8C56.4 361.9 60.1 366.6 67.5 366.6C74.9 366.6 78.5 361.9 81.8 357.8C84.7 354 87.3 350.8 92.4 350.8C93.7 350.8 94.8 349.7 94.8 348.4C94.8 347.1 93.7 346 92.4 346C85 346 81.4 350.7 78.1 354.8C75.2 358.6 72.6 361.8 67.5 361.8C62.4 361.8 59.9 358.6 56.9 354.8C53.7 350.7 50 346 42.6 346C35.2 346 31.6 350.7 28.3 354.8C25.4 358.6 22.8 361.8 17.8 361.8C12.7 361.8 10.2 358.6 7.3 354.8C4.1 350.7 0.4 346 -7 346C-14.4 346 -18 350.7 -21.3 354.8C-24.2 358.6 -26.8 361.8 -31.8 361.8C-36.9 361.8 -39.4 358.6 -42.3 354.8C-45.5 350.7 -49.2 346 -56.6 346C-57.9 346 -59 347.1 -59 348.4C-58.9 349.8 -57.8 350.8 -56.5 350.8Z" fill="#FFD3C7"/>
<path d="M92.5 372.1C85.1 372.1 81.5 376.8 78.2 380.9C75.3 384.7 72.7 387.9 67.6 387.9C62.5 387.9 60 384.7 57 380.9C53.8 376.8 50.1 372.1 42.7 372.1C35.3 372.1 31.7 376.8 28.4 380.9C25.5 384.7 22.9 387.9 17.9 387.9C12.8 387.9 10.3 384.7 7.39998 380.9C4.19998 376.8 0.499976 372.1 -6.90002 372.1C-14.3 372.1 -17.9 376.8 -21.2 380.9C-24.1 384.7 -26.7 387.9 -31.7 387.9C-36.8 387.9 -39.3 384.7 -42.2 380.9C-45.4 376.8 -49.1 372.1 -56.5 372.1C-57.8 372.1 -58.9 373.2 -58.9 374.5C-58.9 375.8 -57.8 376.9 -56.5 376.9C-51.4 376.9 -48.9 380.1 -46 383.9C-42.8 388 -39.1 392.7 -31.7 392.7C-24.3 392.7 -20.7 388 -17.4 383.9C-14.5 380.1 -11.9 376.9 -6.90002 376.9C-1.90002 376.9 0.699975 380.1 3.59998 383.9C6.79998 388 10.5 392.7 17.9 392.7C25.3 392.7 28.9 388 32.2 383.9C35.1 380.1 37.7 376.9 42.7 376.9C47.7 376.9 50.3 380.1 53.2 383.9C56.4 388 60.1 392.7 67.5 392.7C74.9 392.7 78.5 388 81.8 383.9C84.7 380.1 87.3 376.9 92.4 376.9C93.7 376.9 94.8 375.8 94.8 374.5C94.8 373.2 93.8 372.1 92.5 372.1Z" fill="#FFD3C7"/>
<path d="M92.5 398.2C85.1 398.2 81.5 402.9 78.2 407C75.3 410.8 72.7 414 67.6 414C62.5 414 60 410.8 57 407C53.8 402.9 50.1 398.2 42.7 398.2C35.3 398.2 31.7 402.9 28.4 407C25.5 410.8 22.9 414 17.9 414C12.8 414 10.3 410.8 7.39998 407C4.19998 402.9 0.499976 398.2 -6.90002 398.2C-14.3 398.2 -17.9 402.9 -21.2 407C-24.1 410.8 -26.7 414 -31.7 414C-36.8 414 -39.3 410.8 -42.2 407C-45.4 402.9 -49.1 398.2 -56.5 398.2C-57.8 398.2 -58.9 399.3 -58.9 400.6C-58.9 401.9 -57.8 403 -56.5 403C-51.4 403 -48.9 406.2 -46 410C-42.8 414.1 -39.1 418.8 -31.7 418.8C-24.3 418.8 -20.7 414.1 -17.4 410C-14.5 406.2 -11.9 403 -6.90002 403C-1.90002 403 0.699975 406.2 3.59998 410C6.79998 414.1 10.5 418.8 17.9 418.8C25.3 418.8 28.9 414.1 32.2 410C35.1 406.2 37.7 403 42.7 403C47.7 403 50.3 406.2 53.2 410C56.4 414.1 60.1 418.8 67.5 418.8C74.9 418.8 78.5 414.1 81.8 410C84.7 406.2 87.3 403 92.4 403C93.7 403 94.8 401.9 94.8 400.6C94.8 399.3 93.8 398.2 92.5 398.2Z" fill="#FFD3C7"/>
<path d="M92.5 424.3C85.1 424.3 81.5 429 78.2 433.1C75.3 436.9 72.7 440.1 67.6 440.1C62.5 440.1 60 436.9 57 433.1C53.8 429 50.1 424.3 42.7 424.3C35.3 424.3 31.7 429 28.4 433.1C25.5 436.9 22.9 440.1 17.9 440.1C12.8 440.1 10.3 436.9 7.39998 433.1C4.19998 429 0.499976 424.3 -6.90002 424.3C-14.3 424.3 -17.9 429 -21.2 433.1C-24.1 436.9 -26.7 440.1 -31.7 440.1C-36.8 440.1 -39.3 436.9 -42.2 433.1C-45.4 429 -49.1 424.3 -56.5 424.3C-57.8 424.3 -58.9 425.4 -58.9 426.7C-58.9 428 -57.8 429.1 -56.5 429.1C-51.4 429.1 -48.9 432.3 -46 436.1C-42.8 440.2 -39.1 444.9 -31.7 444.9C-24.3 444.9 -20.7 440.2 -17.4 436.1C-14.5 432.3 -11.9 429.1 -6.90002 429.1C-1.90002 429.1 0.699975 432.3 3.59998 436.1C6.79998 440.2 10.5 444.9 17.9 444.9C25.3 444.9 28.9 440.2 32.2 436.1C35.1 432.3 37.7 429.1 42.7 429.1C47.7 429.1 50.3 432.3 53.2 436.1C56.4 440.2 60.1 444.9 67.5 444.9C74.9 444.9 78.5 440.2 81.8 436.1C84.7 432.3 87.3 429.1 92.4 429.1C93.7 429.1 94.8 428 94.8 426.7C94.8 425.3 93.8 424.3 92.5 424.3Z" fill="#FFD3C7"/>
<path d="M183.3 567.8C180.8 567.5 178.8 566.4 177.2 564.6C171 557.6 177.1 546.9 183.5 535.6C187.5 528.5 192.5 519.7 191.3 515.7C190 511.7 183.2 505.9 177.1 500.7C166.6 491.7 155.6 482.4 161 473.4C164.7 467.3 172.8 467.5 179.5 468.4C183 468.9 186.9 469.7 190.6 470.4C194.2 471.1 197.9 471.9 201.3 472.4C206.7 473.1 210.3 472.9 211.9 471.7C215.3 469.3 218.8 461 221.8 453.8C227 441.3 232.4 428.4 242.4 429.8C252.2 431.1 253.7 443.9 255.3 457.5C256.3 465.8 257.4 475.2 260.4 478C261.8 479.4 265.2 480.4 270.3 481.1C273.7 481.6 277.6 481.8 281.3 482.1C283.3 482.2 285.4 482.4 287.3 482.6C289.2 482.8 290.9 483 292.6 483.1C308.5 484.2 309.4 492.6 309.4 494.2C310.2 503.5 299 508.5 287.2 513.9C279.8 517.3 270.5 521.5 269.2 525.4C267.9 529.3 270 538.1 271.8 545.9C275 559.4 278.4 573.4 268.8 577.5C267.1 578.2 265.3 578.5 263.4 578.2C256.6 577.3 250.1 570.1 243.1 562.5L242.9 562.2C237.2 556 230.8 549 226.7 548.9C222.6 548.9 214.8 553.6 208 557.8C198.9 563.4 190.2 568.8 183.3 567.8Z" fill="#FFD3C7"/>
<path d="M178.9 473.1C173.7 472.4 167.4 472.1 165.1 475.8C161.8 481.3 171.6 489.7 180.2 497.1C187.4 503.2 194.2 509 195.8 514.3C197.7 520.2 192.8 528.8 187.6 537.9C182 547.7 176.8 556.9 180.7 561.5C181.5 562.4 182.5 563 183.8 563.1C189 563.8 197.4 558.6 205.5 553.7C213.6 548.7 221.2 544.1 226.7 544.1C232.9 544.2 239.5 551.3 246.4 558.9L246.6 559.2C252.7 565.8 258.9 572.7 264 573.4C265 573.5 266 573.4 266.9 573C272.8 570.5 269.8 557.9 267.2 546.9C265 537.7 262.9 529 264.7 523.8C266.7 517.9 275.7 513.8 285.2 509.5C295.5 504.8 305.1 500.5 304.6 494.5V494.1C304.6 493.9 304.4 488.6 292.2 487.7C290.5 487.6 288.7 487.4 286.8 487.2C284.9 487 282.9 486.8 280.9 486.7C277 486.4 273.1 486.2 269.5 485.7C263.1 484.8 259.2 483.5 257 481.3C252.7 477.2 251.6 467.8 250.4 457.9C249 446.2 247.7 435.2 241.6 434.4C235.2 433.5 230.3 445.2 226 455.6C222.4 464.2 219 472.4 214.5 475.6C211.7 477.6 207.4 478 200.5 477.1C197 476.6 193.2 475.8 189.5 475.1C186 474.4 182.3 473.6 178.9 473.1Z" fill="white"/>
<path d="M666.7 -15.7998H637.4C637 -26.4998 632.9 -36.2999 626.2 -43.8999L646.6 -64.2998C647.5 -65.1998 647.5 -66.7002 646.6 -67.7002C645.7 -68.6002 644.2 -68.6002 643.2 -67.7002L622.9 -47.3999C615.4 -54.2999 605.6 -58.6998 594.8 -59.2998V-87.7998C594.8 -89.0998 593.7 -90.2002 592.4 -90.2002C591.1 -90.2002 590 -89.0998 590 -87.7998V-59.2998C579.2 -58.6998 569.3 -54.2999 561.9 -47.3999L541.6 -67.7002C540.7 -68.6002 539.2 -68.6002 538.2 -67.7002C537.3 -66.8002 537.3 -65.2998 538.2 -64.2998L558.6 -43.8999C552 -36.2999 547.8 -26.4998 547.4 -15.7998H518.1C516.8 -15.7998 515.7 -14.6999 515.7 -13.3999C515.7 -12.0999 516.8 -11 518.1 -11H547.5C548.2 -0.5 552.6 8.9999 559.3 16.3999L538.2 37.5C537.3 38.4 537.3 39.8999 538.2 40.8999C538.7 41.3999 539.3 41.6001 539.9 41.6001C540.5 41.6001 541.1 41.3999 541.6 40.8999L562.8 19.7002C570.2 26.2002 579.7 30.2998 590.1 30.7998V60.8999C590.1 62.1999 591.2 63.2998 592.5 63.2998C593.8 63.2998 594.9 62.1999 594.9 60.8999V30.7998C605.3 30.2998 614.8 26.1002 622.2 19.7002L643.4 40.8999C643.9 41.3999 644.5 41.6001 645.1 41.6001C645.7 41.6001 646.3 41.3999 646.8 40.8999C647.7 39.9999 647.7 38.5 646.8 37.5L625.7 16.3999C632.4 9.0999 636.8 -0.4 637.5 -11H666.9C668.2 -11 669.3 -12.0999 669.3 -13.3999C669.1 -14.6999 668 -15.7998 666.7 -15.7998Z" fill="#FFD3C7"/>
<path d="M592.4 26.1001C570.2 26.1001 552.1 7.99981 552.1 -14.2002C552.1 -36.4002 570.2 -54.5 592.4 -54.5C614.6 -54.5 632.7 -36.4002 632.7 -14.2002C632.7 7.99981 614.6 26.1001 592.4 26.1001Z" fill="white"/>
<path d="M69 175.6C69.5 168.5 64.9 163.3 60.8 158.8C58.5 156.2 56.3 153.8 55.3 151.3C54.1 148.4 53.8 144.8 53.5 140.9C53 134.8 52.4 127.9 47.7 122.5C43.2 117.4 36.7 116.3 31 115.4C27.6 114.8 24.3 114.3 21.8 113C19 111.5 16.4 109 13.7 106.2C9.40002 101.9 4.40002 96.8998 -2.59998 95.7998H-2.79998C-9.39998 94.8998 -15 98.2001 -19.9 101.1C-22.9 102.9 -25.7 104.6 -28.4 105.1C-31.5 105.8 -35.1 105.5 -39 105.1C-45.1 104.6 -52 104 -58.1 107.6C-63.9 111.1 -66.1 117.3 -68 122.8C-69.2 126.1 -70.2 129.2 -71.9 131.4C-73.8 133.8 -76.8 135.9 -79.9 138C-85.1 141.6 -91.1 145.6 -93.1 152.7C-95.4 161 -92.2 172 -83.4 185.4C-79.8 190.8 -75.3 196.7 -70 202.7L-70.8 209.7C-71.7 217.2 -66.4 224 -57.6 226.5C-52.3 228 -46.7 229.4 -41 230.6C-34 236.2 -28.8 239.2 -25.8 239.6C-22.1 240.1 -14.2 237.5 -7.89999 235.1C-0.499986 235.6 7.10002 235.9 14.7 236C24 236 31.3 230.8 32.3 223.2L33.5 214.6C40 210.6 45.6 206.6 50.4 202.8C62.1 193.2 68.5 184 69 175.6Z" fill="#FFD3C7"/>
<path d="M44.1001 125.7C47.8001 129.9 48.3001 135.5 48.8001 141.4C49.2001 145.6 49.5001 149.5 51.0001 153.1C51.3001 153.8 51.6001 154.5 52.0001 155.1L40.4001 172.1C30.8001 186.2 19.2001 198.7 5.80007 209.3L-17.2999 227.7C-12.8999 219.5 -6.39993 207.1 -0.0999279 193.1C14.3001 161.5 21.9001 136.4 22.7001 118.4C25.0001 119.2 27.6001 119.6 30.2001 120C35.6001 121 40.7001 121.8 44.1001 125.7Z" fill="white"/>
<path d="M-27.5 109.9C-24 109.2 -20.9 107.3 -17.5 105.3C-12.8 102.5 -8.39998 99.9002 -3.49998 100.6H-3.29998C2.20002 101.5 6.20002 105.4 10.4 109.6C12.9 112.1 15.3 114.5 18 116.2C17.8 133.5 10.1 159.3 -4.39997 191.1C-12.3 208.3 -20.2 223.2 -24.3 230.6C-26.3 222.3 -29.9 205.9 -32.8 187.1C-38 153.4 -38.5 126.9 -34.3 110.1C-32 110.4 -29.7 110.3 -27.5 109.9Z" fill="white"/>
<path d="M14.6 231.4C9.89998 231.4 5.29998 231.3 0.599976 231L28.2 217.3L27.5 222.6C26.8 227.8 21.5 231.4 14.6 231.4Z" fill="white"/>
<path d="M47.2 199.2C42.5 203.1 36.7 207.1 30.1 211.1L-9.49998 230.7C-12.2 231.8 -14.6 232.6 -16.6 233.2L8.70002 213C22.4 202.1 34.4 189.2 44.2 174.7L54.8 159.2C55.6 160.1 56.4 161 57.2 162C61 166.2 64.5 170.2 64.2 175.3C63.8 182.3 58.1 190.4 47.2 199.2Z" fill="white"/>
<path d="M919.8 154.2C909.9 154.2 900.8 160 896.6 169.2L891.7 180.5V179.7C891.7 165.6 880.3 154.2 866.2 154.2C856.3 154.2 847.2 160 843 169.2L837.4 182V154.3H813.2V240.6H825.2H836.8C836.8 240.6 851.7 176.5 862.9 176.5C867.3 176.5 868.6 179.3 868.6 185.9V240.6H878.4H890.3C892.2 232.4 905.7 176.5 916.2 176.5C920.6 176.5 921.9 179.3 921.9 185.9V240.6H945.4V179.7C945.3 165.6 933.8 154.2 919.8 154.2Z" fill="#FFD3C7" stroke="white" stroke-miterlimit="10"/>
<path d="M781.8 376.2C779.8 381.1 765.7 379.3 762.8 383.4C759.8 387.7 766.1 400.3 762.2 403.7C758.3 407.2 746.5 399.5 741.9 401.9C737.4 404.4 737.6 418.5 732.6 420C727.6 421.4 720.3 409.4 715.1 409.7C710 410 704 422.8 698.8 421.9C693.8 421 692.4 407 687.5 405C682.6 403 671.7 411.9 667.5 409C663.2 406 668.1 392.7 664.7 388.8C661.2 384.9 647.5 388.2 645 383.7C642.5 379.2 652.6 369.3 651.2 364.3C649.8 359.3 635.9 356.4 635.6 351.2C635.3 346.1 648.7 341.6 649.6 336.4C650.5 331.4 639.3 322.7 641.3 317.8C643.3 312.9 657.4 314.7 660.3 310.6C663.3 306.3 657 293.7 660.9 290.3C664.8 286.8 676.6 294.5 681.2 292.1C685.7 289.6 685.5 275.5 690.5 274C695.5 272.6 702.8 284.6 708 284.3C713.1 284 719.1 271.2 724.3 272.1C729.3 273 730.7 287 735.6 289C740.5 291 751.4 282.1 755.6 285C759.9 288 755 301.3 758.4 305.2C761.9 309.1 775.6 305.8 778.1 310.3C780.6 314.8 770.5 324.7 771.9 329.7C773.3 334.7 787.2 337.6 787.5 342.8C787.8 347.9 774.4 352.4 773.5 357.6C772.6 362.6 783.8 371.3 781.8 376.2Z" fill="#FFD3C7"/>
<path d="M690.3 347.3L688.3 339.8H677.8L675.8 347.3H665.8L676.1 314H690.1L700.5 347.3H690.3ZM686.6 333.2L685.4 328.9C685 327.4 684.7 325.8 684.4 324.2C684.1 322.6 684 321.2 684 320H682.1C681.9 322.5 681.4 325.4 680.6 328.9L679.4 333.2H686.6Z" fill="white"/>
<path d="M724.1 347.4C722.8 347.8 721.3 348.1 719.7 348.1C717.1 348.1 715.2 347.5 714 346.4C712.8 345.3 712.2 343.3 712.2 340.5V313.3H721.5V338.8C721.5 339.6 721.7 340.2 722.1 340.6C722.5 341 723 341.2 723.6 341.2C724 341.2 724.4 341.1 724.8 341C725.2 340.8 725.5 340.7 725.7 340.5L726.8 346.1C726.3 346.5 725.4 347 724.1 347.4Z" fill="white"/>
<path d="M754.4 347.4C753.3 347.8 752.2 348.1 751 348.1C749.2 348.1 747.9 347.7 747 346.9C746.1 346.1 745.7 344.9 745.7 343.4C745.7 342.7 745.8 342.1 745.9 341.5H744.8C744.2 343.7 743.2 345.4 741.7 346.5C740.2 347.6 738.2 348.1 735.5 348.1C732.9 348.1 730.9 347.4 729.4 346.1C727.9 344.8 727.2 343 727.2 340.7C727.2 338 728.3 336 730.6 334.5C732.9 333.1 735.9 332.4 739.7 332.4C741 332.4 742.4 332.5 743.8 332.7V331.4C743.8 330.1 743.5 329.2 743 328.6C742.5 328 741.6 327.7 740.6 327.7C738.6 327.7 737.3 328.9 736.9 331.4L728.3 330.1C728.5 328.5 729.2 327 730.3 325.8C731.4 324.5 732.9 323.5 734.8 322.7C736.7 321.9 738.9 321.5 741.5 321.5C745.5 321.5 748.4 322.3 750.3 324C752.2 325.7 753.1 328 753.1 331.1V339.1C753.1 339.6 753.2 340 753.5 340.4C753.7 340.7 754 340.9 754.4 340.9C754.8 340.9 755.1 340.8 755.4 340.5L756.8 346.2C756.3 346.5 755.5 347 754.4 347.4ZM743.8 335.7C743.1 335.6 742.6 335.6 742.3 335.6C740.5 335.6 739.2 336 738.2 336.7C737.3 337.4 736.8 338.4 736.8 339.6C736.8 340.5 737 341.2 737.5 341.7C738 342.2 738.6 342.4 739.4 342.4C740.7 342.4 741.7 341.9 742.5 340.8C743.2 339.7 743.7 338.1 743.8 335.7Z" fill="white"/>
<path d="M710.3 383.3H701V368.3C701 365.8 700.1 364.6 698.2 364.6C696.8 364.6 695.7 365.4 694.9 367.1C694.1 368.8 693.8 371.2 693.8 374.3V383.2H684.5V368.2C684.5 367 684.3 366.1 683.8 365.5C683.3 364.8 682.6 364.5 681.6 364.5C680.2 364.5 679.2 365.3 678.4 366.9C677.7 368.5 677.3 370.9 677.3 374.1V383.2H668V358.1H675.7L676.3 364.4H677.2C678.4 359.7 681.2 357.4 685.7 357.4C688 357.4 689.9 358 691.2 359.2C692.5 360.4 693.1 362.1 693.2 364.4H694.2C695.4 359.7 698.1 357.4 702.5 357.4C707.7 357.4 710.4 360.2 710.4 365.7V383.3H710.3Z" fill="white"/>
<path d="M739.7 383.4C738.6 383.8 737.5 384.1 736.3 384.1C734.5 384.1 733.2 383.7 732.3 382.9C731.4 382.1 731 380.9 731 379.4C731 378.7 731.1 378.1 731.2 377.5H730.1C729.5 379.7 728.5 381.4 727 382.5C725.5 383.6 723.5 384.1 720.8 384.1C718.1 384.1 716.2 383.4 714.7 382.1C713.2 380.8 712.5 379 712.5 376.7C712.5 374 713.6 372 715.9 370.5C718.2 369.1 721.2 368.4 725 368.4C726.3 368.4 727.7 368.5 729.1 368.7V367.4C729.1 366.1 728.8 365.2 728.3 364.6C727.8 364 726.9 363.7 725.9 363.7C723.9 363.7 722.6 364.9 722.2 367.4L713.6 366.1C713.8 364.5 714.5 363 715.6 361.8C716.7 360.5 718.2 359.5 720.1 358.7C722 357.9 724.2 357.5 726.8 357.5C730.8 357.5 733.7 358.3 735.6 360C737.5 361.7 738.4 364 738.4 367.1V375.1C738.4 375.6 738.5 376 738.8 376.4C739 376.7 739.3 376.9 739.7 376.9C740.1 376.9 740.4 376.8 740.7 376.5L742.1 382.2C741.6 382.5 740.8 382.9 739.7 383.4ZM729.1 371.7C728.4 371.6 727.9 371.6 727.6 371.6C725.8 371.6 724.5 372 723.5 372.7C722.6 373.4 722.1 374.4 722.1 375.6C722.1 376.5 722.3 377.2 722.8 377.7C723.3 378.2 723.9 378.4 724.7 378.4C726 378.4 727 377.9 727.8 376.8C728.5 375.7 728.9 374 729.1 371.7Z" fill="white"/>
<path d="M763.2 368.2C762.9 367.8 762.3 367.4 761.6 367.1C760.8 366.7 760 366.5 759 366.5C757.2 366.5 755.6 367.2 754.4 368.6C753.2 370 752.6 372 752.5 374.6V383.3H743.2V358.2H750.9L751.7 365.9H752.7C753.2 363.4 754 361.4 755.4 359.9C756.7 358.4 758.6 357.7 760.9 357.7C762.4 357.7 763.8 358.1 765 358.8L763.2 368.2Z" fill="white"/>
<path d="M489.5 346.2C489.5 351.3 438 348.3 436.5 352.9C434.9 357.7 478.4 385.5 475.5 389.5C472.6 393.5 432.7 360.8 428.6 363.7C424.6 366.6 443.5 414.7 438.6 416.2C434 417.7 421 367.8 415.8 367.8C410.7 367.8 397.7 417.7 393 416.2C388.2 414.6 407 366.6 403 363.7C399 360.8 359.1 393.5 356.1 389.5C353.2 385.5 396.6 357.7 395.1 352.9C393.6 348.3 342.1 351.3 342.1 346.2C342.1 341.1 393.6 344.1 395.1 339.5C396.7 334.7 353.2 306.9 356.1 302.9C359 298.9 398.9 331.6 403 328.7C407 325.8 388.1 277.7 393 276.2C397.6 274.7 410.6 324.6 415.8 324.6C420.9 324.6 433.9 274.7 438.6 276.2C443.4 277.8 424.6 325.8 428.6 328.7C432.6 331.6 472.5 298.9 475.5 302.9C478.4 306.9 435 334.7 436.5 339.5C438 344.1 489.5 341.1 489.5 346.2Z" fill="#FFD3C7"/>
<path d="M799.1 522.9C805.1 522.9 810.4 519.6 813.3 514.8C816.2 519.6 821.5 522.9 827.5 522.9C833.5 522.9 838.8 519.6 841.7 514.8C844.6 519.6 849.9 522.9 855.9 522.9C861.9 522.9 867.2 519.6 870.1 514.8C873 519.6 878.3 522.9 884.3 522.9C890.3 522.9 895.6 519.6 898.5 514.8C901.4 519.6 906.7 522.9 912.7 522.9C918.7 522.9 924 519.6 926.9 514.8C929.8 519.6 935.1 522.9 941.1 522.9C950.2 522.9 957.7 515.5 957.7 506.3C957.7 505 956.6 503.9 955.3 503.9C954 503.9 952.9 505 952.9 506.3C952.9 512.8 947.6 518.1 941.1 518.1C934.6 518.1 929.3 512.8 929.3 506.3C929.3 505 928.2 503.9 926.9 503.9C925.6 503.9 924.5 505 924.5 506.3C924.5 512.8 919.2 518.1 912.7 518.1C906.2 518.1 900.9 512.8 900.9 506.3C900.9 505 899.8 503.9 898.5 503.9C897.2 503.9 896.1 505 896.1 506.3C896.1 512.8 890.8 518.1 884.3 518.1C877.8 518.1 872.5 512.8 872.5 506.3C872.5 505 871.4 503.9 870.1 503.9C868.8 503.9 867.7 505 867.7 506.3C867.7 512.8 862.4 518.1 855.9 518.1C849.4 518.1 844.1 512.8 844.1 506.3C844.1 505 843 503.9 841.7 503.9C840.4 503.9 839.3 505 839.3 506.3C839.3 512.8 834 518.1 827.5 518.1C821 518.1 815.7 512.8 815.7 506.3C815.7 505 814.6 503.9 813.3 503.9C812 503.9 810.9 505 810.9 506.3C810.9 512.8 805.6 518.1 799.1 518.1C792.6 518.1 787.3 512.8 787.3 506.3C787.3 505 786.2 503.9 784.9 503.9C783.6 503.9 782.5 505 782.5 506.3C782.5 515.4 790 522.9 799.1 522.9Z" fill="#FFD3C7"/>
<path d="M955.5 534.7C954.2 534.7 953.1 535.8 953.1 537.1C953.1 543.6 947.8 548.9 941.3 548.9C934.8 548.9 929.5 543.6 929.5 537.1C929.5 535.8 928.4 534.7 927.1 534.7C925.8 534.7 924.7 535.8 924.7 537.1C924.7 543.6 919.4 548.9 912.9 548.9C906.4 548.9 901.1 543.6 901.1 537.1C901.1 535.8 900 534.7 898.7 534.7C897.4 534.7 896.3 535.8 896.3 537.1C896.3 543.6 891 548.9 884.5 548.9C878 548.9 872.7 543.6 872.7 537.1C872.7 535.8 871.6 534.7 870.3 534.7C869 534.7 867.9 535.8 867.9 537.1C867.9 543.6 862.6 548.9 856.1 548.9C849.6 548.9 844.3 543.6 844.3 537.1C844.3 535.8 843.2 534.7 841.9 534.7C840.6 534.7 839.5 535.8 839.5 537.1C839.5 543.6 834.2 548.9 827.7 548.9C821.2 548.9 815.9 543.6 815.9 537.1C815.9 535.8 814.8 534.7 813.5 534.7C812.2 534.7 811.1 535.8 811.1 537.1C811.1 543.6 805.8 548.9 799.3 548.9C792.8 548.9 787.5 543.6 787.5 537.1C787.5 535.8 786.4 534.7 785.1 534.7C783.8 534.7 782.7 535.8 782.7 537.1C782.7 546.2 790.1 553.7 799.3 553.7C805.3 553.7 810.6 550.4 813.5 545.6C816.4 550.4 821.7 553.7 827.7 553.7C833.7 553.7 839 550.4 841.9 545.6C844.8 550.4 850.1 553.7 856.1 553.7C862.1 553.7 867.4 550.4 870.3 545.6C873.2 550.4 878.5 553.7 884.5 553.7C890.5 553.7 895.8 550.4 898.7 545.6C901.6 550.4 906.9 553.7 912.9 553.7C918.9 553.7 924.2 550.4 927.1 545.6C930 550.4 935.3 553.7 941.3 553.7C950.4 553.7 957.9 546.3 957.9 537.1C957.9 535.8 956.8 534.7 955.5 534.7Z" fill="#FFD3C7"/>
<path d="M943.4 368.8L927 376.7C926.7 376.8 926.6 377.2 926.7 377.5L935.4 393.5C935.6 393.9 935.3 394.4 934.8 394.3L916.9 391C916.6 390.9 916.3 391.2 916.2 391.5L913.8 409.6C913.7 410.1 913.2 410.3 912.8 409.9L900.2 396.7C900 396.5 899.6 396.5 899.4 396.7L886.8 409.9C886.5 410.2 885.9 410.1 885.8 409.6L883.4 391.5C883.4 391.2 883.1 391 882.7 391L864.8 394.3C864.3 394.4 864 393.9 864.2 393.5L872.9 377.5C873.1 377.2 872.9 376.9 872.6 376.7L856.2 368.8C855.8 368.6 855.8 368 856.2 367.8L872.6 359.9C872.9 359.8 873 359.4 872.9 359.1L864.2 343.1C864 342.7 864.3 342.2 864.8 342.3L882.7 345.6C883 345.7 883.3 345.4 883.4 345.1L885.8 327C885.9 326.5 886.4 326.3 886.8 326.7L899.4 339.9C899.6 340.1 900 340.1 900.2 339.9L912.8 326.7C913.1 326.4 913.7 326.5 913.8 327L916.2 345.1C916.2 345.4 916.5 345.6 916.9 345.6L934.8 342.3C935.3 342.2 935.6 342.7 935.4 343.1L926.7 359.1C926.5 359.4 926.7 359.7 927 359.9L943.4 367.8C943.8 368 943.8 368.6 943.4 368.8Z" fill="#FFD3C7" stroke="white" stroke-miterlimit="10"/>
<path d="M1974.2 -2.1001C1972.8 -8.2001 1965.1 -8.8999 1958.5 -8.8999C1955 -8.8999 1951 -8.5999 1947.2 -8.3999C1943.4 -8.1999 1939.5 -7.8999 1935.9 -7.8999C1930.1 -7.8999 1926.4 -8.6001 1924.3 -10.1001C1920.2 -13.1001 1917.9 -22.2001 1915.6 -31.1001C1912.4 -43.4001 1909.4 -55 1901.4 -55C1893.1 -55 1889.7 -42.4002 1886.4 -30.2002C1884.2 -21.9002 1881.9 -13.3 1878.3 -10C1876.3 -8.1 1872.5 -7.2998 1866.3 -7.2998C1862.9 -7.2998 1859 -7.5998 1855.3 -7.7998C1851.6 -8.0998 1847.7 -8.2998 1844.2 -8.2998C1838.2 -8.2998 1831 -7.5998 1828.7 -2.2998C1825.4 5.5002 1836.6 12.7002 1847.4 19.7002C1854.7 24.4002 1862.3 29.3002 1864.3 33.7002C1866.5 38.4002 1862.8 47.4998 1859.3 56.2998C1854.8 67.5998 1850.5 78.2002 1856.3 83.2002C1857.7 84.4002 1859.3 85 1861.2 85C1867.3 85 1874.9 78.8002 1883 72.2002C1889.8 66.7002 1896.7 60.9999 1901.5 60.3999C1906.7 59.7999 1914.2 66.1002 1921.4 72.2002C1928.9 78.5002 1936.1 84.5 1942.1 84.5C1943.6 84.5 1944.9 84.0999 1946.1 83.3999C1953.3 79.0999 1948.5 66.6001 1943.9 54.6001C1940.8 46.5001 1937.5 38.0998 1938.4 33.2998C1939.4 28.1998 1947.7 23 1955.7 18C1966.2 11.5 1975.9 5.3999 1974.2 -2.1001Z" fill="#FFD3C7"/>
<path d="M1573.7 180C1573.7 192.4 1569.3 203.9 1561.8 213.2C1565.8 214.5 1569.8 215.4 1573.7 215.4C1586.5 215.4 1597.6 209.2 1604.2 198.1C1605.5 195.4 1608.2 193.7 1611.3 193.7C1614.4 193.7 1617.1 195 1618.8 197.2C1631.6 214 1652.9 224.2 1675.4 224.2C1705.5 224.2 1732 206.1 1741.3 180C1732 153.9 1705.5 135.8 1675.4 135.8C1652.8 135.8 1631.6 145.5 1618.8 162.8C1617 165.5 1614.4 166.3 1611.3 166.3C1608.2 165.9 1605.5 164.5 1604.2 161.9C1597.6 151.3 1586.1 144.6 1573.7 144.6C1569.7 144.6 1565.3 145.5 1561.8 146.8C1569.3 156.1 1573.7 167.6 1573.7 180Z" fill="#FFD3C7"/>
<path d="M1488.4 73.5C1487.1 73.5 1486 74.5999 1486 75.8999C1486 81.6999 1481.3 86.3999 1475.5 86.3999C1469.7 86.3999 1465 81.6999 1465 75.8999V41.2002H1481.3C1485.6 41.2002 1489.1 37.4001 1488.5 33.1001C1484.5 0.400097 1456.6 -25 1422.8 -25C1389 -25 1361.1 0.400097 1357.1 33.1001C1356.6 37.4001 1360 41.2002 1364.3 41.2002H1380.6V75.8999C1380.6 81.6999 1375.9 86.3999 1370.1 86.3999C1364.3 86.3999 1359.6 81.6999 1359.6 75.8999C1359.6 74.5999 1358.5 73.5 1357.2 73.5C1355.9 73.5 1354.8 74.5999 1354.8 75.8999C1354.8 84.2999 1361.6 91.1001 1370 91.1001C1378.4 91.1001 1385.2 84.2999 1385.2 75.8999V41.2002H1409.1V103.5C1409.1 109.3 1404.4 114 1398.6 114C1392.8 114 1388.1 109.3 1388.1 103.5C1388.1 102.2 1387 101.1 1385.7 101.1C1384.4 101.1 1383.3 102.2 1383.3 103.5C1383.3 111.9 1390.1 118.7 1398.5 118.7C1406.9 118.7 1413.7 111.9 1413.7 103.5V41.2002H1432.2V103.5C1432.2 111.9 1439 118.7 1447.4 118.7C1455.8 118.7 1462.6 111.9 1462.6 103.5C1462.6 102.2 1461.5 101.1 1460.2 101.1C1458.9 101.1 1457.8 102.2 1457.8 103.5C1457.8 109.3 1453.1 114 1447.3 114C1441.5 114 1436.8 109.3 1436.8 103.5V41.2002H1459.9V75.8999C1459.9 84.2999 1466.7 91.1001 1475.1 91.1001C1483.5 91.1001 1490.3 84.2999 1490.3 75.8999C1490.8 74.4999 1489.7 73.5 1488.4 73.5Z" fill="#FFD3C7"/>
<path d="M1651.9 565.2C1652.4 556.2 1653 538.6 1652.7 518.9C1652 483.7 1648.3 456.7 1641.8 440.6C1639.8 440 1637.7 439.3 1635.6 438.5C1629.9 436.3 1624.1 434.1 1618 435.8L1617.8 435.9C1612.2 437.5 1608.9 442.2 1605.6 446.8C1603.5 449.8 1601.5 452.7 1598.9 454.5C1597.3 455.7 1595.5 456.6 1593.5 457.4C1595.9 474.5 1607.3 499.4 1626.7 529.4C1636.8 544.9 1646.6 558.3 1651.9 565.2Z" fill="#FFD3C7"/>
<path d="M1656.8 560.7L1670.8 533.6C1678.6 518.5 1684.2 502.3 1687.2 485.5L1692 462.7C1691.7 462.4 1691.3 462.2 1691 461.9C1688.5 459.5 1686.6 456.2 1684.7 452.6C1681.8 447.3 1678.7 441.9 1673 439.2C1667.6 436.7 1661.9 438.2 1656.5 439.7C1653.2 440.6 1650.1 441.4 1647.2 441.3C1659.2 474.9 1658 535.7 1656.8 560.7Z" fill="#FFD3C7"/>
<path d="M1648.1 571.7L1616 553C1600.9 544.2 1587.2 533.2 1575.3 520.3L1564.2 507.4C1561.5 511.9 1559.3 516.6 1560.1 521.9C1561.3 529.7 1568.4 537.9 1581.2 546.1C1587.1 549.9 1594 553.5 1601.1 556.7V556.8L1647.1 571.6C1647.5 571.6 1647.8 571.6 1648.1 571.7Z" fill="#FFD3C7"/>
<path d="M1618.4 548.9L1645.6 564.7C1640 557.2 1631.4 545.4 1622.7 531.8C1603.1 501.3 1591.7 476.8 1588.9 458.8C1588.8 458.8 1588.7 458.9 1588.6 458.9C1582.9 460.9 1576.9 462.9 1573.3 468.1C1569.9 473 1570.4 478.8 1570.9 484.4C1571.2 488.1 1571.5 491.5 1570.7 494.6C1570 497.5 1568.4 500.3 1566.6 503.2L1578.8 517C1590.4 529.6 1603.7 540.3 1618.4 548.9Z" fill="#FFD3C7"/>
<path d="M1712.9 477.6C1710.8 471.8 1705.2 469.4 1699.8 467C1698.6 466.5 1697.4 465.9 1696.3 465.4L1691.9 486.5C1688.8 503.7 1683.1 520.3 1675.1 535.9L1658.1 568.7L1699 521.9C1702 517.3 1704.7 512.8 1706.9 508.4C1713.6 495.1 1715.6 484.8 1712.9 477.6Z" fill="#FFD3C7"/>
<path d="M1689.1 551.9C1696.5 548.6 1700.4 542 1698.7 535.9L1697.3 531L1673.4 558.3C1678.5 556.4 1683.7 554.3 1689.1 551.9Z" fill="#FFD3C7"/>
<path d="M1356.8 215C1337.3 195.5 1306.3 194.2 1285.2 211.1C1288 186.7 1308.7 167.7 1333.8 167.7C1335.1 167.7 1336.2 166.6 1336.2 165.3C1336.2 164 1335.1 162.9 1333.8 162.9C1309 162.9 1288.1 179.8 1281.9 202.7C1275.8 179.8 1254.8 162.9 1230 162.9C1228.7 162.9 1227.6 164 1227.6 165.3C1227.6 166.6 1228.7 167.7 1230 167.7C1255.1 167.7 1275.8 186.7 1278.6 211.1C1257.5 194.2 1226.6 195.5 1207 215C1206.1 215.9 1206.1 217.4 1207 218.4C1207.9 219.3 1209.4 219.3 1210.4 218.4C1228.1 200.7 1256.1 199.4 1275.3 214.6C1248.5 216.8 1227.6 233.3 1227.6 253.3C1227.6 254.6 1228.7 255.7 1230 255.7C1231.3 255.7 1232.4 254.6 1232.4 253.3C1232.4 234.7 1253.7 219.6 1280.1 219.1V315.3C1280.1 316.6 1281.2 317.7 1282.5 317.7C1283.8 317.7 1284.9 316.6 1284.9 315.3V219.1C1310.8 220 1331.5 235 1331.5 253.3C1331.5 254.6 1332.6 255.7 1333.9 255.7C1335.2 255.7 1336.3 254.6 1336.3 253.3C1336.3 233.3 1315.4 216.8 1288.6 214.6C1307.8 199.4 1335.8 200.7 1353.5 218.4C1354 218.9 1354.6 219.1 1355.2 219.1C1355.8 219.1 1356.4 218.9 1356.9 218.4C1357.7 217.5 1357.7 216 1356.8 215Z" fill="#FFD3C7"/>
<path d="M1244.8 -12.7002C1243.5 -12.7002 1242.4 -11.5998 1242.4 -10.2998C1242.4 -3.7998 1237.1 1.5 1230.6 1.5C1224.1 1.5 1218.8 -3.7998 1218.8 -10.2998C1218.8 -11.5998 1217.7 -12.7002 1216.4 -12.7002C1215.1 -12.7002 1214 -11.5998 1214 -10.2998C1214 -3.7998 1208.7 1.5 1202.2 1.5C1195.7 1.5 1190.4 -3.7998 1190.4 -10.2998C1190.4 -11.5998 1189.3 -12.7002 1188 -12.7002C1186.7 -12.7002 1185.6 -11.5998 1185.6 -10.2998C1185.6 -3.7998 1180.3 1.5 1173.8 1.5C1167.3 1.5 1162 -3.7998 1162 -10.2998C1162 -11.5998 1160.9 -12.7002 1159.6 -12.7002C1158.3 -12.7002 1157.2 -11.5998 1157.2 -10.2998C1157.2 -3.7998 1151.9 1.5 1145.4 1.5C1138.9 1.5 1133.6 -3.7998 1133.6 -10.2998C1133.6 -11.5998 1132.5 -12.7002 1131.2 -12.7002C1129.9 -12.7002 1128.8 -11.5998 1128.8 -10.2998C1128.8 -3.7998 1123.5 1.5 1117 1.5C1110.5 1.5 1105.2 -3.7998 1105.2 -10.2998C1105.2 -11.5998 1104.1 -12.7002 1102.8 -12.7002C1101.5 -12.7002 1100.4 -11.5998 1100.4 -10.2998C1100.4 -3.7998 1095.1 1.5 1088.6 1.5C1082.1 1.5 1076.8 -3.7998 1076.8 -10.2998C1076.8 -11.5998 1075.7 -12.7002 1074.4 -12.7002C1073.1 -12.7002 1072 -11.5998 1072 -10.2998C1072 -1.1998 1079.4 6.2998 1088.6 6.2998C1094.6 6.2998 1099.9 3.0002 1102.8 -1.7998C1105.7 3.0002 1111 6.2998 1117 6.2998C1123 6.2998 1128.3 3.0002 1131.2 -1.7998C1134.1 3.0002 1139.4 6.2998 1145.4 6.2998C1151.4 6.2998 1156.7 3.0002 1159.6 -1.7998C1162.5 3.0002 1167.8 6.2998 1173.8 6.2998C1179.8 6.2998 1185.1 3.0002 1188 -1.7998C1190.9 3.0002 1196.2 6.2998 1202.2 6.2998C1208.2 6.2998 1213.5 3.0002 1216.4 -1.7998C1219.3 3.0002 1224.6 6.2998 1230.6 6.2998C1239.7 6.2998 1247.2 -1.0998 1247.2 -10.2998C1247.2 -11.5998 1246.1 -12.7002 1244.8 -12.7002Z" fill="#FFD3C7"/>
<path d="M1244.8 18.1001C1243.5 18.1001 1242.4 19.2 1242.4 20.5C1242.4 27 1237.1 32.2998 1230.6 32.2998C1224.1 32.2998 1218.8 27 1218.8 20.5C1218.8 19.2 1217.7 18.1001 1216.4 18.1001C1215.1 18.1001 1214 19.2 1214 20.5C1214 27 1208.7 32.2998 1202.2 32.2998C1195.7 32.2998 1190.4 27 1190.4 20.5C1190.4 19.2 1189.3 18.1001 1188 18.1001C1186.7 18.1001 1185.6 19.2 1185.6 20.5C1185.6 27 1180.3 32.2998 1173.8 32.2998C1167.3 32.2998 1162 27 1162 20.5C1162 19.2 1160.9 18.1001 1159.6 18.1001C1158.3 18.1001 1157.2 19.2 1157.2 20.5C1157.2 27 1151.9 32.2998 1145.4 32.2998C1138.9 32.2998 1133.6 27 1133.6 20.5C1133.6 19.2 1132.5 18.1001 1131.2 18.1001C1129.9 18.1001 1128.8 19.2 1128.8 20.5C1128.8 27 1123.5 32.2998 1117 32.2998C1110.5 32.2998 1105.2 27 1105.2 20.5C1105.2 19.2 1104.1 18.1001 1102.8 18.1001C1101.5 18.1001 1100.4 19.2 1100.4 20.5C1100.4 27 1095.1 32.2998 1088.6 32.2998C1082.1 32.2998 1076.8 27 1076.8 20.5C1076.8 19.2 1075.7 18.1001 1074.4 18.1001C1073.1 18.1001 1072 19.2 1072 20.5C1072 29.6 1079.4 37.1001 1088.6 37.1001C1094.6 37.1001 1099.9 33.8 1102.8 29C1105.7 33.8 1111 37.1001 1117 37.1001C1123 37.1001 1128.3 33.8 1131.2 29C1134.1 33.8 1139.4 37.1001 1145.4 37.1001C1151.4 37.1001 1156.7 33.8 1159.6 29C1162.5 33.8 1167.8 37.1001 1173.8 37.1001C1179.8 37.1001 1185.1 33.8 1188 29C1190.9 33.8 1196.2 37.1001 1202.2 37.1001C1208.2 37.1001 1213.5 33.8 1216.4 29C1219.3 33.8 1224.6 37.1001 1230.6 37.1001C1239.7 37.1001 1247.2 29.7 1247.2 20.5C1247.2 19.2 1246.1 18.1001 1244.8 18.1001Z" fill="#FFD3C7"/>
<path d="M1007.5 350.8C1012.6 350.8 1015.1 354 1018 357.8C1021.2 361.9 1024.9 366.6 1032.3 366.6C1039.7 366.6 1043.3 361.9 1046.6 357.8C1049.5 354 1052.1 350.8 1057.1 350.8C1062.2 350.8 1064.7 354 1067.6 357.8C1070.8 361.9 1074.5 366.6 1081.9 366.6C1089.3 366.6 1092.9 361.9 1096.2 357.8C1099.1 354 1101.7 350.8 1106.7 350.8C1111.8 350.8 1114.3 354 1117.2 357.8C1120.4 361.9 1124.1 366.6 1131.5 366.6C1138.9 366.6 1142.5 361.9 1145.8 357.8C1148.7 354 1151.3 350.8 1156.4 350.8C1157.7 350.8 1158.8 349.7 1158.8 348.4C1158.8 347.1 1157.7 346 1156.4 346C1149 346 1145.4 350.7 1142.1 354.8C1139.2 358.6 1136.6 361.8 1131.5 361.8C1126.4 361.8 1123.9 358.6 1120.9 354.8C1117.7 350.7 1114 346 1106.6 346C1099.2 346 1095.6 350.7 1092.3 354.8C1089.4 358.6 1086.8 361.8 1081.8 361.8C1076.7 361.8 1074.2 358.6 1071.3 354.8C1068.1 350.7 1064.4 346 1057 346C1049.6 346 1046 350.7 1042.7 354.8C1039.8 358.6 1037.2 361.8 1032.2 361.8C1027.1 361.8 1024.6 358.6 1021.7 354.8C1018.5 350.7 1014.8 346 1007.4 346C1006.1 346 1005 347.1 1005 348.4C1005.2 349.8 1006.2 350.8 1007.5 350.8Z" fill="#FFD3C7"/>
<path d="M1156.5 372.1C1149.1 372.1 1145.5 376.8 1142.2 380.9C1139.3 384.7 1136.7 387.9 1131.6 387.9C1126.5 387.9 1124 384.7 1121 380.9C1117.8 376.8 1114.1 372.1 1106.7 372.1C1099.3 372.1 1095.7 376.8 1092.4 380.9C1089.5 384.7 1086.9 387.9 1081.9 387.9C1076.8 387.9 1074.3 384.7 1071.4 380.9C1068.2 376.8 1064.5 372.1 1057.1 372.1C1049.7 372.1 1046.1 376.8 1042.8 380.9C1039.9 384.7 1037.3 387.9 1032.3 387.9C1027.2 387.9 1024.7 384.7 1021.8 380.9C1018.6 376.8 1014.9 372.1 1007.5 372.1C1006.2 372.1 1005.1 373.2 1005.1 374.5C1005.1 375.8 1006.2 376.9 1007.5 376.9C1012.6 376.9 1015.1 380.1 1018 383.9C1021.2 388 1024.9 392.7 1032.3 392.7C1039.7 392.7 1043.3 388 1046.6 383.9C1049.5 380.1 1052.1 376.9 1057.1 376.9C1062.2 376.9 1064.7 380.1 1067.6 383.9C1070.8 388 1074.5 392.7 1081.9 392.7C1089.3 392.7 1092.9 388 1096.2 383.9C1099.1 380.1 1101.7 376.9 1106.7 376.9C1111.8 376.9 1114.3 380.1 1117.2 383.9C1120.4 388 1124.1 392.7 1131.5 392.7C1138.9 392.7 1142.5 388 1145.8 383.9C1148.7 380.1 1151.3 376.9 1156.4 376.9C1157.7 376.9 1158.8 375.8 1158.8 374.5C1158.8 373.2 1157.8 372.1 1156.5 372.1Z" fill="#FFD3C7"/>
<path d="M1156.5 398.2C1149.1 398.2 1145.5 402.9 1142.2 407C1139.3 410.8 1136.7 414 1131.6 414C1126.5 414 1124 410.8 1121 407C1117.8 402.9 1114.1 398.2 1106.7 398.2C1099.3 398.2 1095.7 402.9 1092.4 407C1089.5 410.8 1086.9 414 1081.9 414C1076.8 414 1074.3 410.8 1071.4 407C1068.2 402.9 1064.5 398.2 1057.1 398.2C1049.7 398.2 1046.1 402.9 1042.8 407C1039.9 410.8 1037.3 414 1032.3 414C1027.2 414 1024.7 410.8 1021.8 407C1018.6 402.9 1014.9 398.2 1007.5 398.2C1006.2 398.2 1005.1 399.3 1005.1 400.6C1005.1 401.9 1006.2 403 1007.5 403C1012.6 403 1015.1 406.2 1018 410C1021.2 414.1 1024.9 418.8 1032.3 418.8C1039.7 418.8 1043.3 414.1 1046.6 410C1049.5 406.2 1052.1 403 1057.1 403C1062.2 403 1064.7 406.2 1067.6 410C1070.8 414.1 1074.5 418.8 1081.9 418.8C1089.3 418.8 1092.9 414.1 1096.2 410C1099.1 406.2 1101.7 403 1106.7 403C1111.8 403 1114.3 406.2 1117.2 410C1120.4 414.1 1124.1 418.8 1131.5 418.8C1138.9 418.8 1142.5 414.1 1145.8 410C1148.7 406.2 1151.3 403 1156.4 403C1157.7 403 1158.8 401.9 1158.8 400.6C1158.8 399.3 1157.8 398.2 1156.5 398.2Z" fill="#FFD3C7"/>
<path d="M1156.5 424.3C1149.1 424.3 1145.5 429 1142.2 433.1C1139.3 436.9 1136.7 440.1 1131.6 440.1C1126.5 440.1 1124 436.9 1121 433.1C1117.8 429 1114.1 424.3 1106.7 424.3C1099.3 424.3 1095.7 429 1092.4 433.1C1089.5 436.9 1086.9 440.1 1081.9 440.1C1076.8 440.1 1074.3 436.9 1071.4 433.1C1068.2 429 1064.5 424.3 1057.1 424.3C1049.7 424.3 1046.1 429 1042.8 433.1C1039.9 436.9 1037.3 440.1 1032.3 440.1C1027.2 440.1 1024.7 436.9 1021.8 433.1C1018.6 429 1014.9 424.3 1007.5 424.3C1006.2 424.3 1005.1 425.4 1005.1 426.7C1005.1 428 1006.2 429.1 1007.5 429.1C1012.6 429.1 1015.1 432.3 1018 436.1C1021.2 440.2 1024.9 444.9 1032.3 444.9C1039.7 444.9 1043.3 440.2 1046.6 436.1C1049.5 432.3 1052.1 429.1 1057.1 429.1C1062.2 429.1 1064.7 432.3 1067.6 436.1C1070.8 440.2 1074.5 444.9 1081.9 444.9C1089.3 444.9 1092.9 440.2 1096.2 436.1C1099.1 432.3 1101.7 429.1 1106.7 429.1C1111.8 429.1 1114.3 432.3 1117.2 436.1C1120.4 440.2 1124.1 444.9 1131.5 444.9C1138.9 444.9 1142.5 440.2 1145.8 436.1C1148.7 432.3 1151.3 429.1 1156.4 429.1C1157.7 429.1 1158.8 428 1158.8 426.7C1158.8 425.3 1157.8 424.3 1156.5 424.3Z" fill="#FFD3C7"/>
<path d="M1247.3 567.8C1244.8 567.5 1242.8 566.4 1241.2 564.6C1235 557.6 1241.1 546.9 1247.5 535.6C1251.5 528.5 1256.5 519.7 1255.3 515.7C1254 511.7 1247.2 505.9 1241.1 500.7C1230.6 491.7 1219.6 482.4 1225 473.4C1228.7 467.3 1236.8 467.5 1243.5 468.4C1247 468.9 1250.9 469.7 1254.6 470.4C1258.2 471.1 1261.9 471.9 1265.3 472.4C1270.7 473.1 1274.3 472.9 1275.9 471.7C1279.3 469.3 1282.8 461 1285.8 453.8C1291 441.3 1296.4 428.4 1306.4 429.8C1316.2 431.1 1317.7 443.9 1319.3 457.5C1320.3 465.8 1321.4 475.2 1324.4 478C1325.8 479.4 1329.2 480.4 1334.3 481.1C1337.7 481.6 1341.6 481.8 1345.3 482.1C1347.3 482.2 1349.4 482.4 1351.3 482.6C1353.2 482.8 1354.9 483 1356.6 483.1C1372.5 484.2 1373.4 492.6 1373.4 494.2C1374.2 503.5 1363 508.5 1351.2 513.9C1343.8 517.3 1334.5 521.5 1333.2 525.4C1331.9 529.3 1334 538.1 1335.8 545.9C1339 559.4 1342.4 573.4 1332.8 577.5C1331.1 578.2 1329.3 578.5 1327.4 578.2C1320.6 577.3 1314.1 570.1 1307.1 562.5L1306.9 562.2C1301.2 556 1294.8 549 1290.7 548.9C1286.6 548.9 1278.8 553.6 1272 557.8C1262.9 563.4 1254.2 568.8 1247.3 567.8Z" fill="#FFD3C7"/>
<path d="M1242.9 473.1C1237.7 472.4 1231.4 472.1 1229.1 475.8C1225.8 481.3 1235.6 489.7 1244.2 497.1C1251.4 503.2 1258.2 509 1259.8 514.3C1261.7 520.2 1256.8 528.8 1251.6 537.9C1246 547.7 1240.8 556.9 1244.7 561.5C1245.5 562.4 1246.5 563 1247.8 563.1C1253 563.8 1261.4 558.6 1269.5 553.7C1277.6 548.7 1285.2 544.1 1290.7 544.1C1296.9 544.2 1303.5 551.3 1310.4 558.9L1310.6 559.2C1316.7 565.8 1322.9 572.7 1328 573.4C1329 573.5 1330 573.4 1330.9 573C1336.8 570.5 1333.8 557.9 1331.2 546.9C1329 537.7 1326.9 529 1328.7 523.8C1330.7 517.9 1339.7 513.8 1349.2 509.5C1359.5 504.8 1369.1 500.5 1368.6 494.5V494.1C1368.6 493.9 1368.4 488.6 1356.2 487.7C1354.5 487.6 1352.7 487.4 1350.8 487.2C1348.9 487 1346.9 486.8 1344.9 486.7C1341 486.4 1337.1 486.2 1333.5 485.7C1327.1 484.8 1323.2 483.5 1321 481.3C1316.7 477.2 1315.6 467.8 1314.4 457.9C1313 446.2 1311.7 435.2 1305.6 434.4C1299.2 433.5 1294.3 445.2 1290 455.6C1286.4 464.2 1283 472.4 1278.5 475.6C1275.7 477.6 1271.4 478 1264.5 477.1C1261 476.6 1257.2 475.8 1253.5 475.1C1250 474.4 1246.3 473.6 1242.9 473.1Z" fill="white"/>
<path d="M1730.7 -15.7998H1701.4C1701 -26.4998 1696.9 -36.2999 1690.2 -43.8999L1710.6 -64.2998C1711.5 -65.1998 1711.5 -66.7002 1710.6 -67.7002C1709.7 -68.6002 1708.2 -68.6002 1707.2 -67.7002L1686.9 -47.3999C1679.4 -54.2999 1669.6 -58.6998 1658.8 -59.2998V-87.7998C1658.8 -89.0998 1657.7 -90.2002 1656.4 -90.2002C1655.1 -90.2002 1654 -89.0998 1654 -87.7998V-59.2998C1643.2 -58.6998 1633.3 -54.2999 1625.9 -47.3999L1605.6 -67.7002C1604.7 -68.6002 1603.2 -68.6002 1602.2 -67.7002C1601.3 -66.8002 1601.3 -65.2998 1602.2 -64.2998L1622.6 -43.8999C1616 -36.2999 1611.8 -26.4998 1611.4 -15.7998H1582.1C1580.8 -15.7998 1579.7 -14.6999 1579.7 -13.3999C1579.7 -12.0999 1580.8 -11 1582.1 -11H1611.5C1612.2 -0.5 1616.6 8.9999 1623.3 16.3999L1602.2 37.5C1601.3 38.4 1601.3 39.8999 1602.2 40.8999C1602.7 41.3999 1603.3 41.6001 1603.9 41.6001C1604.5 41.6001 1605.1 41.3999 1605.6 40.8999L1626.8 19.7002C1634.2 26.2002 1643.7 30.2998 1654.1 30.7998V60.8999C1654.1 62.1999 1655.2 63.2998 1656.5 63.2998C1657.8 63.2998 1658.9 62.1999 1658.9 60.8999V30.7998C1669.3 30.2998 1678.8 26.1002 1686.2 19.7002L1707.4 40.8999C1707.9 41.3999 1708.5 41.6001 1709.1 41.6001C1709.7 41.6001 1710.3 41.3999 1710.8 40.8999C1711.7 39.9999 1711.7 38.5 1710.8 37.5L1689.7 16.3999C1696.4 9.0999 1700.8 -0.4 1701.5 -11H1730.9C1732.2 -11 1733.3 -12.0999 1733.3 -13.3999C1733.1 -14.6999 1732 -15.7998 1730.7 -15.7998Z" fill="#FFD3C7"/>
<path d="M1656.4 26.1001C1634.2 26.1001 1616.1 7.99981 1616.1 -14.2002C1616.1 -36.4002 1634.2 -54.5 1656.4 -54.5C1678.6 -54.5 1696.7 -36.4002 1696.7 -14.2002C1696.7 7.99981 1678.6 26.1001 1656.4 26.1001Z" fill="white"/>
<path d="M1133 175.6C1133.5 168.5 1128.9 163.3 1124.8 158.8C1122.5 156.2 1120.3 153.8 1119.3 151.3C1118.1 148.4 1117.8 144.8 1117.5 140.9C1117 134.8 1116.4 127.9 1111.7 122.5C1107.2 117.4 1100.7 116.3 1095 115.4C1091.6 114.8 1088.3 114.3 1085.8 113C1083 111.5 1080.4 109 1077.7 106.2C1073.4 101.9 1068.4 96.8998 1061.4 95.7998H1061.2C1054.6 94.8998 1049 98.2001 1044.1 101.1C1041.1 102.9 1038.3 104.6 1035.6 105.1C1032.5 105.8 1028.9 105.5 1025 105.1C1018.9 104.6 1012 104 1005.9 107.6C1000.1 111.1 997.9 117.3 996 122.8C994.8 126.1 993.8 129.2 992.1 131.4C990.2 133.8 987.2 135.9 984.1 138C978.9 141.6 972.9 145.6 970.9 152.7C968.6 161 971.8 172 980.6 185.4C984.2 190.8 988.7 196.7 994 202.7L993.2 209.7C992.3 217.2 997.6 224 1006.4 226.5C1011.7 228 1017.3 229.4 1023 230.6C1030 236.2 1035.2 239.2 1038.2 239.6C1041.9 240.1 1049.8 237.5 1056.1 235.1C1063.5 235.6 1071.1 235.9 1078.7 236C1088 236 1095.3 230.8 1096.3 223.2L1097.5 214.6C1104 210.6 1109.6 206.6 1114.4 202.8C1126.1 193.2 1132.5 184 1133 175.6Z" fill="#FFD3C7"/>
<path d="M1108.1 125.7C1111.8 129.9 1112.3 135.5 1112.8 141.4C1113.2 145.6 1113.5 149.5 1115 153.1C1115.3 153.8 1115.6 154.5 1116 155.1L1104.4 172.1C1094.8 186.2 1083.2 198.7 1069.8 209.3L1046.7 227.7C1051.1 219.5 1057.6 207.1 1063.9 193.1C1078.3 161.5 1085.9 136.4 1086.7 118.4C1089 119.2 1091.6 119.6 1094.2 120C1099.6 121 1104.7 121.8 1108.1 125.7Z" fill="white"/>
<path d="M1036.5 109.9C1040 109.2 1043.1 107.3 1046.5 105.3C1051.2 102.5 1055.6 99.9002 1060.5 100.6H1060.7C1066.2 101.5 1070.2 105.4 1074.4 109.6C1076.9 112.1 1079.3 114.5 1082 116.2C1081.8 133.5 1074.1 159.3 1059.6 191.1C1051.7 208.3 1043.8 223.2 1039.7 230.6C1037.7 222.3 1034.1 205.9 1031.2 187.1C1026 153.4 1025.5 126.9 1029.7 110.1C1032 110.4 1034.3 110.3 1036.5 109.9Z" fill="white"/>
<path d="M995.7 134.5C997.9 131.7 999.1 128.2 1000.4 124.5C1002.2 119.3 1003.9 114.4 1008.3 111.8C1013.1 108.9 1018.7 109.4 1024.6 109.9C1024.7 109.9 1024.8 109.9 1024.9 109.9C1020.7 127.5 1021.3 153.7 1026.6 188C1029.1 203.9 1032 218.2 1034.1 227.3L1015.8 201.8C1005.9 188 998.1 172.7 992.7 156.6L988.1 141.1C990.9 139.2 993.7 137.1 995.7 134.5Z" fill="white"/>
<path d="M984.4 183C976.4 170.8 973.4 161.1 975.3 154.2C976.5 149.8 979.9 146.9 983.8 144.1L988 158.2C993.6 174.8 1001.6 190.5 1011.8 204.7L1030.5 230.7C1029.1 229.7 1027.4 228.5 1025.6 227.1L998.8 201.6L998.1 200.8C992.6 194.4 988 188.5 984.4 183Z" fill="white"/>
<path d="M997.7 210.5L998.1 207.3L1016.1 224.4C1013.2 223.7 1010.3 222.9 1007.5 222.1C1001 220.3 997.1 215.6 997.7 210.5Z" fill="white"/>
<path d="M1078.6 231.4C1073.9 231.4 1069.3 231.3 1064.6 231L1092.2 217.3L1091.5 222.6C1090.8 227.8 1085.5 231.4 1078.6 231.4Z" fill="white"/>
<path d="M1111.2 199.2C1106.5 203.1 1100.7 207.1 1094.1 211.1L1054.5 230.7C1051.8 231.8 1049.4 232.6 1047.4 233.2L1072.7 213C1086.4 202.1 1098.4 189.2 1108.2 174.7L1118.8 159.2C1119.6 160.1 1120.4 161 1121.2 162C1125 166.2 1128.5 170.2 1128.2 175.3C1127.8 182.3 1122.1 190.4 1111.2 199.2Z" fill="white"/>
<path d="M1983.8 154.2C1973.9 154.2 1964.8 160 1960.6 169.2L1955.7 180.5V179.7C1955.7 165.6 1944.3 154.2 1930.2 154.2C1920.3 154.2 1911.2 160 1907 169.2L1901.4 182V154.3H1877.2V240.6H1889.2H1900.8C1900.8 240.6 1915.7 176.5 1926.9 176.5C1931.3 176.5 1932.6 179.3 1932.6 185.9V240.6H1942.4H1954.3C1956.2 232.4 1969.7 176.5 1980.2 176.5C1984.6 176.5 1985.9 179.3 1985.9 185.9V240.6H2009.4V179.7C2009.3 165.6 1997.8 154.2 1983.8 154.2Z" fill="#FFD3C7" stroke="white" stroke-miterlimit="10"/>
<path d="M1845.8 376.2C1843.8 381.1 1829.7 379.3 1826.8 383.4C1823.8 387.7 1830.1 400.3 1826.2 403.7C1822.3 407.2 1810.5 399.5 1805.9 401.9C1801.4 404.4 1801.6 418.5 1796.6 420C1791.6 421.4 1784.3 409.4 1779.1 409.7C1774 410 1768 422.8 1762.8 421.9C1757.8 421 1756.4 407 1751.5 405C1746.6 403 1735.7 411.9 1731.5 409C1727.2 406 1732.1 392.7 1728.7 388.8C1725.2 384.9 1711.5 388.2 1709 383.7C1706.5 379.2 1716.6 369.3 1715.2 364.3C1713.8 359.3 1699.9 356.4 1699.6 351.2C1699.3 346.1 1712.7 341.6 1713.6 336.4C1714.5 331.4 1703.3 322.7 1705.3 317.8C1707.3 312.9 1721.4 314.7 1724.3 310.6C1727.3 306.3 1721 293.7 1724.9 290.3C1728.8 286.8 1740.6 294.5 1745.2 292.1C1749.7 289.6 1749.5 275.5 1754.5 274C1759.5 272.6 1766.8 284.6 1772 284.3C1777.1 284 1783.1 271.2 1788.3 272.1C1793.3 273 1794.7 287 1799.6 289C1804.5 291 1815.4 282.1 1819.6 285C1823.9 288 1819 301.3 1822.4 305.2C1825.9 309.1 1839.6 305.8 1842.1 310.3C1844.6 314.8 1834.5 324.7 1835.9 329.7C1837.3 334.7 1851.2 337.6 1851.5 342.8C1851.8 347.9 1838.4 352.4 1837.5 357.6C1836.6 362.6 1847.8 371.3 1845.8 376.2Z" fill="#FFD3C7"/>
<path d="M1754.3 347.3L1752.3 339.8H1741.8L1739.8 347.3H1729.8L1740.1 314H1754.1L1764.5 347.3H1754.3ZM1750.6 333.2L1749.4 328.9C1749 327.4 1748.7 325.8 1748.4 324.2C1748.1 322.6 1748 321.2 1748 320H1746.1C1745.9 322.5 1745.4 325.4 1744.6 328.9L1743.4 333.2H1750.6Z" fill="white"/>
<path d="M1788.1 347.4C1786.8 347.8 1785.3 348.1 1783.7 348.1C1781.1 348.1 1779.2 347.5 1778 346.4C1776.8 345.3 1776.2 343.3 1776.2 340.5V313.3H1785.5V338.8C1785.5 339.6 1785.7 340.2 1786.1 340.6C1786.5 341 1787 341.2 1787.6 341.2C1788 341.2 1788.4 341.1 1788.8 341C1789.2 340.8 1789.5 340.7 1789.7 340.5L1790.8 346.1C1790.3 346.5 1789.4 347 1788.1 347.4Z" fill="white"/>
<path d="M1818.4 347.4C1817.3 347.8 1816.2 348.1 1815 348.1C1813.2 348.1 1811.9 347.7 1811 346.9C1810.1 346.1 1809.7 344.9 1809.7 343.4C1809.7 342.7 1809.8 342.1 1809.9 341.5H1808.8C1808.2 343.7 1807.2 345.4 1805.7 346.5C1804.2 347.6 1802.2 348.1 1799.5 348.1C1796.8 348.1 1794.9 347.4 1793.4 346.1C1791.9 344.8 1791.2 343 1791.2 340.7C1791.2 338 1792.3 336 1794.6 334.5C1796.9 333.1 1799.9 332.4 1803.7 332.4C1805 332.4 1806.4 332.5 1807.8 332.7V331.4C1807.8 330.1 1807.5 329.2 1807 328.6C1806.5 328 1805.6 327.7 1804.6 327.7C1802.6 327.7 1801.3 328.9 1800.9 331.4L1792.3 330.1C1792.5 328.5 1793.2 327 1794.3 325.8C1795.4 324.5 1796.9 323.5 1798.8 322.7C1800.7 321.9 1802.9 321.5 1805.5 321.5C1809.5 321.5 1812.4 322.3 1814.3 324C1816.2 325.7 1817.1 328 1817.1 331.1V339.1C1817.1 339.6 1817.2 340 1817.5 340.4C1817.7 340.7 1818 340.9 1818.4 340.9C1818.8 340.9 1819.1 340.8 1819.4 340.5L1820.8 346.2C1820.3 346.5 1819.5 347 1818.4 347.4ZM1807.8 335.7C1807.1 335.6 1806.6 335.6 1806.3 335.6C1804.5 335.6 1803.2 336 1802.2 336.7C1801.3 337.4 1800.8 338.4 1800.8 339.6C1800.8 340.5 1801 341.2 1801.5 341.7C1802 342.2 1802.6 342.4 1803.4 342.4C1804.7 342.4 1805.7 341.9 1806.5 340.8C1807.2 339.7 1807.7 338.1 1807.8 335.7Z" fill="white"/>
<path d="M1774.3 383.3H1765V368.3C1765 365.8 1764.1 364.6 1762.2 364.6C1760.8 364.6 1759.7 365.4 1758.9 367.1C1758.1 368.8 1757.8 371.2 1757.8 374.3V383.2H1748.5V368.2C1748.5 367 1748.3 366.1 1747.8 365.5C1747.3 364.8 1746.6 364.5 1745.6 364.5C1744.2 364.5 1743.2 365.3 1742.4 366.9C1741.6 368.5 1741.3 370.9 1741.3 374.1V383.2H1732V358.1H1739.7L1740.3 364.4H1741.2C1742.4 359.7 1745.2 357.4 1749.7 357.4C1752 357.4 1753.9 358 1755.2 359.2C1756.5 360.4 1757.1 362.1 1757.2 364.4H1758.2C1759.4 359.7 1762.1 357.4 1766.5 357.4C1771.7 357.4 1774.4 360.2 1774.4 365.7V383.3H1774.3Z" fill="white"/>
<path d="M1803.7 383.4C1802.6 383.8 1801.5 384.1 1800.3 384.1C1798.5 384.1 1797.2 383.7 1796.3 382.9C1795.4 382.1 1795 380.9 1795 379.4C1795 378.7 1795.1 378.1 1795.2 377.5H1794.1C1793.5 379.7 1792.5 381.4 1791 382.5C1789.5 383.6 1787.5 384.1 1784.8 384.1C1782.1 384.1 1780.2 383.4 1778.7 382.1C1777.2 380.8 1776.5 379 1776.5 376.7C1776.5 374 1777.6 372 1779.9 370.5C1782.2 369.1 1785.2 368.4 1789 368.4C1790.3 368.4 1791.7 368.5 1793.1 368.7V367.4C1793.1 366.1 1792.8 365.2 1792.3 364.6C1791.8 364 1790.9 363.7 1789.9 363.7C1787.9 363.7 1786.6 364.9 1786.2 367.4L1777.6 366.1C1777.8 364.5 1778.5 363 1779.6 361.8C1780.7 360.5 1782.2 359.5 1784.1 358.7C1786 357.9 1788.2 357.5 1790.8 357.5C1794.8 357.5 1797.7 358.3 1799.6 360C1801.5 361.7 1802.4 364 1802.4 367.1V375.1C1802.4 375.6 1802.5 376 1802.8 376.4C1803 376.7 1803.3 376.9 1803.7 376.9C1804.1 376.9 1804.4 376.8 1804.7 376.5L1806.1 382.2C1805.6 382.5 1804.8 382.9 1803.7 383.4ZM1793.1 371.7C1792.4 371.6 1791.9 371.6 1791.6 371.6C1789.8 371.6 1788.5 372 1787.5 372.7C1786.6 373.4 1786.1 374.4 1786.1 375.6C1786.1 376.5 1786.3 377.2 1786.8 377.7C1787.3 378.2 1787.9 378.4 1788.7 378.4C1790 378.4 1791 377.9 1791.8 376.8C1792.5 375.7 1792.9 374 1793.1 371.7Z" fill="white"/>
<path d="M1827.2 368.2C1826.9 367.8 1826.3 367.4 1825.6 367.1C1824.8 366.7 1824 366.5 1823 366.5C1821.2 366.5 1819.6 367.2 1818.4 368.6C1817.2 370 1816.6 372 1816.5 374.6V383.3H1807.2V358.2H1814.9L1815.7 365.9H1816.7C1817.2 363.4 1818 361.4 1819.4 359.9C1820.7 358.4 1822.6 357.7 1824.9 357.7C1826.4 357.7 1827.8 358.1 1829 358.8L1827.2 368.2Z" fill="white"/>
<path d="M1553.5 346.2C1553.5 351.3 1502 348.3 1500.5 352.9C1498.9 357.7 1542.4 385.5 1539.5 389.5C1536.6 393.5 1496.7 360.8 1492.6 363.7C1488.6 366.6 1507.5 414.7 1502.6 416.2C1498 417.7 1485 367.8 1479.8 367.8C1474.6 367.8 1461.7 417.7 1457 416.2C1452.2 414.6 1471 366.6 1467 363.7C1463 360.8 1423.1 393.5 1420.1 389.5C1417.2 385.5 1460.6 357.7 1459.1 352.9C1457.6 348.3 1406.1 351.3 1406.1 346.2C1406.1 341.1 1457.6 344.1 1459.1 339.5C1460.7 334.7 1417.2 306.9 1420.1 302.9C1423 298.9 1462.9 331.6 1467 328.7C1471 325.8 1452.1 277.7 1457 276.2C1461.6 274.7 1474.6 324.6 1479.8 324.6C1484.9 324.6 1497.9 274.7 1502.6 276.2C1507.4 277.8 1488.6 325.8 1492.6 328.7C1496.6 331.6 1536.5 298.9 1539.5 302.9C1542.4 306.9 1499 334.7 1500.5 339.5C1502 344.1 1553.5 341.1 1553.5 346.2Z" fill="#FFD3C7"/>
<path d="M1863.1 522.9C1869.1 522.9 1874.4 519.6 1877.3 514.8C1880.2 519.6 1885.5 522.9 1891.5 522.9C1897.5 522.9 1902.8 519.6 1905.7 514.8C1908.6 519.6 1913.9 522.9 1919.9 522.9C1925.9 522.9 1931.2 519.6 1934.1 514.8C1937 519.6 1942.3 522.9 1948.3 522.9C1954.3 522.9 1959.6 519.6 1962.5 514.8C1965.4 519.6 1970.7 522.9 1976.7 522.9C1982.7 522.9 1988 519.6 1990.9 514.8C1993.8 519.6 1999.1 522.9 2005.1 522.9C2014.2 522.9 2021.7 515.5 2021.7 506.3C2021.7 505 2020.6 503.9 2019.3 503.9C2018 503.9 2016.9 505 2016.9 506.3C2016.9 512.8 2011.6 518.1 2005.1 518.1C1998.6 518.1 1993.3 512.8 1993.3 506.3C1993.3 505 1992.2 503.9 1990.9 503.9C1989.6 503.9 1988.5 505 1988.5 506.3C1988.5 512.8 1983.2 518.1 1976.7 518.1C1970.2 518.1 1964.9 512.8 1964.9 506.3C1964.9 505 1963.8 503.9 1962.5 503.9C1961.2 503.9 1960.1 505 1960.1 506.3C1960.1 512.8 1954.8 518.1 1948.3 518.1C1941.8 518.1 1936.5 512.8 1936.5 506.3C1936.5 505 1935.4 503.9 1934.1 503.9C1932.8 503.9 1931.7 505 1931.7 506.3C1931.7 512.8 1926.4 518.1 1919.9 518.1C1913.4 518.1 1908.1 512.8 1908.1 506.3C1908.1 505 1907 503.9 1905.7 503.9C1904.4 503.9 1903.3 505 1903.3 506.3C1903.3 512.8 1898 518.1 1891.5 518.1C1885 518.1 1879.7 512.8 1879.7 506.3C1879.7 505 1878.6 503.9 1877.3 503.9C1876 503.9 1874.9 505 1874.9 506.3C1874.9 512.8 1869.6 518.1 1863.1 518.1C1856.6 518.1 1851.3 512.8 1851.3 506.3C1851.3 505 1850.2 503.9 1848.9 503.9C1847.6 503.9 1846.5 505 1846.5 506.3C1846.5 515.4 1854 522.9 1863.1 522.9Z" fill="#FFD3C7"/>
<path d="M2019.5 534.7C2018.2 534.7 2017.1 535.8 2017.1 537.1C2017.1 543.6 2011.8 548.9 2005.3 548.9C1998.8 548.9 1993.5 543.6 1993.5 537.1C1993.5 535.8 1992.4 534.7 1991.1 534.7C1989.8 534.7 1988.7 535.8 1988.7 537.1C1988.7 543.6 1983.4 548.9 1976.9 548.9C1970.4 548.9 1965.1 543.6 1965.1 537.1C1965.1 535.8 1964 534.7 1962.7 534.7C1961.4 534.7 1960.3 535.8 1960.3 537.1C1960.3 543.6 1955 548.9 1948.5 548.9C1942 548.9 1936.7 543.6 1936.7 537.1C1936.7 535.8 1935.6 534.7 1934.3 534.7C1933 534.7 1931.9 535.8 1931.9 537.1C1931.9 543.6 1926.6 548.9 1920.1 548.9C1913.6 548.9 1908.3 543.6 1908.3 537.1C1908.3 535.8 1907.2 534.7 1905.9 534.7C1904.6 534.7 1903.5 535.8 1903.5 537.1C1903.5 543.6 1898.2 548.9 1891.7 548.9C1885.2 548.9 1879.9 543.6 1879.9 537.1C1879.9 535.8 1878.8 534.7 1877.5 534.7C1876.2 534.7 1875.1 535.8 1875.1 537.1C1875.1 543.6 1869.8 548.9 1863.3 548.9C1856.8 548.9 1851.5 543.6 1851.5 537.1C1851.5 535.8 1850.4 534.7 1849.1 534.7C1847.8 534.7 1846.7 535.8 1846.7 537.1C1846.7 546.2 1854.1 553.7 1863.3 553.7C1869.3 553.7 1874.6 550.4 1877.5 545.6C1880.4 550.4 1885.7 553.7 1891.7 553.7C1897.7 553.7 1903 550.4 1905.9 545.6C1908.8 550.4 1914.1 553.7 1920.1 553.7C1926.1 553.7 1931.4 550.4 1934.3 545.6C1937.2 550.4 1942.5 553.7 1948.5 553.7C1954.5 553.7 1959.8 550.4 1962.7 545.6C1965.6 550.4 1970.9 553.7 1976.9 553.7C1982.9 553.7 1988.2 550.4 1991.1 545.6C1994 550.4 1999.3 553.7 2005.3 553.7C2014.4 553.7 2021.9 546.3 2021.9 537.1C2021.9 535.8 2020.8 534.7 2019.5 534.7Z" fill="#FFD3C7"/>
<path d="M2007.4 368.8L1991 376.7C1990.7 376.8 1990.6 377.2 1990.7 377.5L1999.4 393.5C1999.6 393.9 1999.3 394.4 1998.8 394.3L1980.9 391C1980.6 390.9 1980.3 391.2 1980.2 391.5L1977.8 409.6C1977.7 410.1 1977.2 410.3 1976.8 409.9L1964.2 396.7C1964 396.5 1963.6 396.5 1963.4 396.7L1950.8 409.9C1950.5 410.2 1949.9 410.1 1949.8 409.6L1947.4 391.5C1947.4 391.2 1947.1 391 1946.7 391L1928.8 394.3C1928.3 394.4 1928 393.9 1928.2 393.5L1936.9 377.5C1937.1 377.2 1936.9 376.9 1936.6 376.7L1920.2 368.8C1919.8 368.6 1919.8 368 1920.2 367.8L1936.6 359.9C1936.9 359.8 1937 359.4 1936.9 359.1L1928.2 343.1C1928 342.7 1928.3 342.2 1928.8 342.3L1946.7 345.6C1947 345.7 1947.3 345.4 1947.4 345.1L1949.8 327C1949.9 326.5 1950.4 326.3 1950.8 326.7L1963.4 339.9C1963.6 340.1 1964 340.1 1964.2 339.9L1976.8 326.7C1977.1 326.4 1977.7 326.5 1977.8 327L1980.2 345.1C1980.2 345.4 1980.5 345.6 1980.9 345.6L1998.8 342.3C1999.3 342.2 1999.6 342.7 1999.4 343.1L1990.7 359.1C1990.5 359.4 1990.7 359.7 1991 359.9L2007.4 367.8C2007.8 368 2007.8 368.6 2007.4 368.8Z" fill="#FFD3C7" stroke="white" stroke-miterlimit="10"/>
</g>
</g>
</svg>
