<svg width="828" height="525" viewBox="0 0 828 525" fill="none" xmlns="http://www.w3.org/2000/svg">
<g clip-path="url(#clip0_405_6)">
<path opacity="0.07" d="M762.632 0H65.3684C28.3263 0 0 28.4375 0 65.625V459.375C0 496.563 30.5053 525 65.3684 525H762.632C799.674 525 828 496.563 828 459.375V65.625C828 28.4375 797.495 0 762.632 0Z" fill="black"/>
<path d="M762.631 21.875C786.599 21.875 806.21 41.5625 806.21 65.625V459.375C806.21 483.437 786.599 503.125 762.631 503.125H65.368C41.3996 503.125 21.7891 483.437 21.7891 459.375V65.625C21.7891 41.5625 41.3996 21.875 65.368 21.875H762.631Z" fill="white"/>
<g clip-path="url(#clip1_405_6)">
<path d="M314.877 243.618C314.877 193.765 254.147 153.125 179.232 153.125C104.321 153.125 43.5939 193.765 43.5939 243.618C43.5939 244.905 43.5781 248.464 43.5781 248.916C43.5781 301.804 96.658 344.638 179.215 344.638C262.284 344.638 314.877 301.815 314.877 248.925C314.877 247.076 314.877 246.014 314.877 243.618Z" fill="#141685"/>
<path d="M309.683 243.573C309.683 290.573 251.291 328.674 179.257 328.674C107.225 328.674 48.8359 290.573 48.8359 243.573C48.8369 196.569 107.226 158.469 179.258 158.469C251.292 158.469 309.683 196.569 309.683 243.573Z" fill="#05B0D9"/>
<path d="M135.952 216.723C135.884 216.858 134.583 218.23 135.426 219.334C137.485 222.015 143.841 223.553 150.27 222.083C154.098 221.206 159.004 217.226 163.758 213.38C168.907 209.205 174.018 205.026 179.155 203.363C184.594 201.598 188.078 202.355 190.381 203.066C192.907 203.834 195.876 205.53 200.614 209.156C209.54 215.999 245.424 247.946 251.624 253.469C256.618 251.169 278.81 241.424 308.967 234.644C306.347 218.244 296.567 203.242 281.735 190.957C261.063 199.813 235.798 204.434 211.095 192.127C210.968 192.074 197.598 185.62 184.409 185.937C164.808 186.401 156.316 195.054 147.331 204.213L135.952 216.723Z" fill="white"/>
<path d="M250.165 256.944C249.745 256.562 207.972 219.28 198.508 212.025C193.032 207.836 189.986 206.768 186.787 206.351C185.121 206.131 182.822 206.447 181.214 206.896C176.811 208.119 171.056 212.045 165.944 216.176C160.653 220.475 155.663 224.524 151.035 225.58C145.12 226.933 137.897 225.337 134.601 223.064C133.266 222.149 132.327 221.09 131.874 220.014C130.657 217.136 132.903 214.833 133.272 214.448L144.8 201.731C146.139 200.366 147.489 199.001 148.869 197.657C145.149 198.152 141.711 199.12 138.364 200.071C134.187 201.27 130.169 202.409 126.105 202.406C124.409 202.406 115.318 200.887 113.592 200.408C103.161 197.495 94.0058 194.66 80.3286 188.146C63.9406 200.589 52.9826 216.149 49.8164 233.285C52.1709 233.921 55.9646 235.072 57.5583 235.432C94.6444 243.842 106.196 252.507 108.29 254.315C110.559 251.739 113.829 250.11 117.484 250.11C121.589 250.116 125.285 252.218 127.532 255.469C129.656 253.758 132.585 252.296 136.371 252.298C138.09 252.298 139.874 252.623 141.676 253.248C145.861 254.712 148.02 257.553 149.139 260.125C150.544 259.478 152.269 259.002 154.301 259.007C156.297 259.007 158.375 259.472 160.469 260.395C167.306 263.388 168.371 270.238 167.75 275.402C168.237 275.344 168.727 275.321 169.225 275.321C177.331 275.327 183.926 282.047 183.922 290.322C183.922 292.881 183.281 295.289 182.164 297.402C184.371 298.667 189.994 301.528 194.93 300.889C198.874 300.384 200.372 299.008 200.909 298.234C201.275 297.701 201.664 297.08 201.304 296.635L190.839 284.778C190.839 284.778 189.116 283.116 189.684 282.476C190.276 281.818 191.339 282.762 192.092 283.405C197.418 287.941 203.921 294.787 203.921 294.787C204.03 294.861 204.461 295.728 206.865 296.168C208.936 296.546 212.598 296.327 215.136 294.201C215.777 293.664 216.417 292.995 216.951 292.304C216.909 292.337 216.874 292.383 216.834 292.399C219.51 288.908 216.538 285.373 216.538 285.373L204.321 271.38C204.321 271.38 202.574 269.734 203.167 269.07C203.699 268.496 204.824 269.365 205.588 270.012C209.456 273.312 214.921 278.906 220.159 284.139C221.182 284.903 225.787 287.808 231.882 283.723C235.58 281.249 236.324 278.209 236.22 275.915C235.962 272.879 233.639 270.716 233.639 270.716L216.951 253.604C216.951 253.604 215.189 252.068 215.811 251.292C216.321 250.638 217.466 251.58 218.216 252.22C223.535 256.757 237.924 270.214 237.924 270.214C238.128 270.362 243.101 273.972 249.245 269.982C251.442 268.55 252.846 266.389 252.966 263.883C253.178 259.528 250.165 256.944 250.165 256.944Z" fill="white"/>
<path d="M169.223 278.638C166.636 278.607 163.805 280.174 163.436 279.947C163.233 279.809 163.594 278.748 163.837 278.137C164.085 277.53 167.493 267.072 159.187 263.44C152.831 260.653 148.945 263.788 147.61 265.203C147.259 265.573 147.103 265.544 147.062 265.071C146.934 263.189 146.108 258.093 140.622 256.386C132.781 253.939 127.74 259.52 126.461 261.535C125.888 256.976 122.11 253.438 117.483 253.434C112.455 253.428 108.377 257.583 108.371 262.71C108.37 267.837 112.445 271.994 117.472 271.994C119.916 272 122.132 271.004 123.765 269.404C123.817 269.453 123.838 269.54 123.81 269.717C123.429 272.012 122.723 280.356 131.289 283.753C134.724 285.113 137.646 284.101 140.068 282.369C140.789 281.85 140.907 282.069 140.804 282.76C140.495 284.904 140.886 289.5 147.2 292.113C152.005 294.103 154.848 292.065 156.71 290.311C157.521 289.554 157.742 289.677 157.785 290.843C158.015 297.052 163.071 301.981 169.211 301.988C175.539 301.994 180.666 296.776 180.669 290.326C180.673 283.87 175.549 278.708 169.223 278.638Z" fill="white"/>
<path d="M251.78 252.481C238.913 241.026 209.173 214.656 201.119 208.49C196.518 204.959 193.379 203.095 190.623 202.257C189.387 201.876 187.673 201.442 185.467 201.44C183.42 201.44 181.219 201.818 178.922 202.562C173.716 204.242 168.532 208.446 163.515 212.512L163.258 212.721C158.584 216.508 153.757 220.428 150.103 221.261C148.507 221.627 146.866 221.816 145.231 221.816C141.137 221.81 137.46 220.605 136.083 218.813C135.856 218.518 136.001 218.036 136.533 217.345L136.604 217.254L147.923 204.81C156.79 195.768 165.164 187.228 184.441 186.777C184.758 186.768 185.084 186.762 185.403 186.762C197.402 186.769 209.397 192.248 210.742 192.883C221.993 198.481 233.605 201.324 245.279 201.334C257.446 201.338 269.998 198.266 283.196 192.068C281.722 190.803 280.189 189.572 278.61 188.367C267.016 193.493 255.969 196.084 245.311 196.08C234.426 196.071 223.549 193.404 212.991 188.149C212.434 187.878 199.189 181.508 185.407 181.502C185.046 181.502 184.68 181.508 184.32 181.513C168.128 181.901 159.007 187.764 152.874 192.903C146.909 193.051 141.762 194.519 137.183 195.823C133.097 196.982 129.569 197.986 126.127 197.983C124.709 197.983 122.157 197.851 121.928 197.843C117.971 197.721 98.0327 192.732 82.1704 186.607C80.5507 187.777 78.9931 188.984 77.4762 190.213C94.0456 197.142 114.21 202.503 120.573 202.921C122.345 203.039 124.232 203.244 126.119 203.249C130.328 203.249 134.53 202.044 138.597 200.884C140.998 200.196 143.648 199.448 146.436 198.903C145.691 199.648 144.95 200.403 144.205 201.164L132.703 213.854C131.799 214.786 129.833 217.274 131.129 220.338C131.644 221.574 132.69 222.755 134.153 223.761C136.894 225.643 141.802 226.915 146.36 226.92C148.087 226.922 149.724 226.745 151.229 226.401C156.049 225.297 161.106 221.188 166.465 216.844C170.733 213.384 176.798 208.993 181.441 207.701C182.738 207.342 184.332 207.118 185.612 207.118C185.995 207.122 186.356 207.134 186.692 207.182C189.76 207.58 192.725 208.645 198.021 212.698C207.461 219.931 249.24 257.208 249.649 257.577C249.678 257.6 252.341 259.944 252.156 263.84C252.057 266.012 250.873 267.943 248.819 269.28C247.036 270.434 245.194 271.022 243.334 271.022C240.542 271.016 238.619 269.683 238.495 269.59C238.34 269.462 224.027 256.075 218.762 251.579C217.922 250.87 217.107 250.232 216.283 250.232C215.842 250.228 215.453 250.421 215.189 250.758C214.36 251.799 215.288 253.241 216.382 254.191L233.102 271.333C233.125 271.351 235.186 273.322 235.411 275.952C235.543 278.793 234.21 281.17 231.441 283.021C229.469 284.347 227.471 285.02 225.515 285.02C222.949 285.02 221.145 283.826 220.747 283.545L218.348 281.133C213.965 276.734 209.438 272.186 206.126 269.366C205.319 268.68 204.454 268.048 203.633 268.048C203.227 268.048 202.861 268.202 202.58 268.503C202.203 268.932 201.939 269.702 202.88 270.979C203.269 271.505 203.725 271.938 203.725 271.938L215.926 285.917C216.027 286.041 218.441 288.967 216.201 291.881L215.77 292.439C215.405 292.85 215.01 293.228 214.636 293.555C212.554 295.297 209.774 295.483 208.673 295.483C208.085 295.483 207.517 295.431 207.024 295.34C205.819 295.12 205.011 294.777 204.62 294.306L204.473 294.148C203.805 293.446 197.655 287.042 192.565 282.71C191.895 282.136 191.06 281.413 190.193 281.413C189.766 281.413 189.386 281.585 189.092 281.915C188.085 283.04 189.595 284.722 190.237 285.338L200.644 297.043C200.633 297.147 200.501 297.387 200.25 297.758C199.878 298.284 198.614 299.573 194.839 300.055C194.388 300.116 193.919 300.14 193.457 300.14C189.565 300.14 185.413 298.214 183.273 297.056C184.247 294.956 184.752 292.647 184.752 290.329C184.756 281.591 177.801 274.485 169.236 274.479C169.053 274.479 168.858 274.485 168.675 274.492C168.955 270.503 168.403 262.95 160.802 259.626C158.615 258.661 156.432 258.168 154.312 258.168C152.653 258.168 151.057 258.458 149.555 259.046C147.981 255.924 145.366 253.651 141.955 252.466C140.071 251.8 138.195 251.463 136.382 251.463C133.221 251.463 130.307 252.413 127.707 254.299C125.218 251.14 121.455 249.27 117.494 249.27C114.029 249.27 110.696 250.685 108.224 253.18C104.986 250.658 92.1363 242.331 57.7462 234.366C56.0802 233.983 52.2579 232.864 49.9173 232.165C49.5295 234.065 49.2324 235.983 49.0371 237.921C49.0371 237.921 55.3806 239.47 56.6281 239.756C91.7605 247.714 103.368 255.99 105.33 257.555C104.667 259.182 104.322 260.939 104.317 262.708C104.313 270.111 110.216 276.14 117.48 276.146C118.293 276.146 119.1 276.074 119.893 275.924C120.987 281.371 124.482 285.501 129.824 287.622C131.385 288.232 132.965 288.548 134.514 288.548C135.518 288.55 136.526 288.42 137.512 288.164C138.497 290.72 140.718 293.906 145.68 295.962C147.421 296.676 149.161 297.049 150.851 297.049C152.232 297.049 153.584 296.802 154.872 296.32C157.25 302.227 162.909 306.141 169.217 306.141C173.399 306.147 177.413 304.408 180.341 301.335C182.848 302.757 188.138 305.327 193.482 305.335C194.176 305.335 194.824 305.284 195.473 305.205C200.782 304.52 203.252 302.403 204.388 300.756C204.592 300.469 204.777 300.165 204.934 299.847C206.187 300.215 207.565 300.515 209.144 300.519C212.043 300.519 214.827 299.51 217.639 297.42C220.402 295.389 222.366 292.471 222.649 289.987C222.654 289.954 222.66 289.917 222.664 289.881C223.595 290.078 224.551 290.178 225.505 290.178C228.49 290.178 231.426 289.228 234.232 287.354C239.644 283.734 240.584 279.009 240.495 275.913C241.44 276.115 242.409 276.218 243.37 276.218C246.174 276.218 248.923 275.358 251.547 273.653C254.901 271.468 256.921 268.118 257.226 264.221C257.436 261.571 256.793 258.9 255.422 256.603C264.49 252.619 285.213 244.908 309.616 239.299C309.469 237.368 309.196 235.462 308.859 233.565C279.332 240.25 257.299 249.976 251.78 252.481ZM169.223 301.155C163.489 301.15 158.827 296.605 158.618 290.812C158.602 290.317 158.553 288.996 157.457 288.996C157.007 288.996 156.616 289.273 156.166 289.687C154.906 290.878 153.3 292.091 150.954 292.091C149.892 292.091 148.737 291.838 147.52 291.33C141.465 288.829 141.381 284.585 141.627 282.881C141.693 282.426 141.717 281.952 141.409 281.584L141.037 281.244H140.66C140.353 281.244 140.035 281.372 139.606 281.679C137.854 282.935 136.175 283.544 134.467 283.544C133.527 283.544 132.563 283.351 131.597 282.972C123.624 279.806 124.254 272.133 124.644 269.822C124.701 269.354 124.588 268.991 124.296 268.749L123.733 268.276L123.207 268.79C121.651 270.318 119.621 271.155 117.483 271.155C112.917 271.149 109.202 267.365 109.205 262.707C109.209 258.047 112.928 254.266 117.495 254.271C121.62 254.271 125.133 257.436 125.66 261.64L125.945 263.908L127.167 261.989C127.304 261.765 130.65 256.605 136.799 256.612C137.969 256.612 139.177 256.804 140.392 257.187C145.297 258.714 146.127 263.248 146.255 265.136C146.342 266.237 147.11 266.29 147.261 266.29C147.684 266.29 147.994 266.016 148.216 265.781C149.141 264.796 151.157 263.157 154.311 263.157C155.754 263.163 157.29 263.511 158.876 264.206C166.667 267.616 163.133 277.715 163.09 277.82C162.421 279.494 162.395 280.234 163.024 280.66L163.331 280.81H163.559C163.91 280.81 164.347 280.654 165.068 280.405C166.129 280.031 167.73 279.469 169.226 279.473H169.229C175.095 279.537 179.865 284.407 179.864 290.322C179.858 296.299 175.085 301.155 169.223 301.155Z" fill="#141685"/>
<path d="M777.077 185.96C772.182 179.703 764.75 176.576 754.775 176.576C744.812 176.576 737.377 179.703 732.485 185.96C727.585 192.214 725.135 199.606 725.135 208.135C725.135 216.816 727.585 224.235 732.485 230.41C737.377 236.565 744.812 239.654 754.775 239.654C764.749 239.654 772.182 236.566 777.077 230.41C781.978 224.235 784.422 216.816 784.422 208.135C784.421 199.606 781.978 192.214 777.077 185.96ZM764.946 221.853C762.569 225.07 759.171 226.678 754.727 226.678C750.295 226.678 746.879 225.07 744.483 221.853C742.087 218.639 740.895 214.064 740.895 208.135C740.895 202.214 742.087 197.651 744.483 194.452C746.879 191.254 750.295 189.653 754.727 189.653C759.171 189.653 762.569 191.253 764.946 194.452C767.318 197.65 768.511 202.214 768.511 208.135C768.511 214.063 767.318 218.639 764.946 221.853Z" fill="#141685"/>
<path d="M651.95 180.727C646.988 178.159 641.303 176.863 634.908 176.863C625.079 176.863 618.14 179.481 614.104 184.702C611.564 188.048 610.138 192.311 609.805 197.502H624.493C624.854 195.211 625.575 193.396 626.659 192.055C628.174 190.242 630.748 189.334 634.39 189.334C637.644 189.334 640.102 189.789 641.786 190.726C643.457 191.649 644.301 193.33 644.301 195.757C644.301 197.759 643.211 199.222 641.018 200.171C639.798 200.716 637.773 201.17 634.933 201.532L629.728 202.186C623.813 202.945 619.324 204.221 616.285 206.002C610.722 209.27 607.945 214.546 607.945 221.845C607.945 227.467 609.665 231.819 613.128 234.886C616.573 237.954 620.964 239.239 626.259 239.49C659.473 241.003 659.096 221.639 659.402 217.612V195.323C659.4 188.176 656.914 183.307 651.95 180.727ZM644.237 214.546C644.136 219.737 642.675 223.313 639.876 225.273C637.076 227.236 634.014 228.218 630.696 228.218C628.594 228.218 626.816 227.623 625.35 226.445C623.888 225.266 623.162 223.349 623.162 220.698C623.162 217.725 624.355 215.531 626.749 214.112C628.174 213.282 630.499 212.565 633.747 211.997L637.215 211.341C638.94 211.006 640.299 210.65 641.291 210.266C642.295 209.894 643.265 209.402 644.238 208.778L644.237 214.546Z" fill="#141685"/>
<path d="M576.219 190.14C580.017 190.14 582.803 191.336 584.607 193.726C585.842 195.495 586.615 197.489 586.913 199.701H603.297C602.396 191.271 599.504 185.386 594.623 182.051C589.725 178.732 583.451 177.059 575.779 177.059C566.756 177.059 559.669 179.886 554.551 185.528C549.419 191.178 546.854 199.074 546.854 209.225C546.854 218.213 549.173 225.539 553.815 231.185C558.458 236.828 565.702 239.654 575.543 239.654C585.396 239.654 592.836 236.269 597.847 229.5C600.991 225.305 602.752 220.852 603.123 216.145H586.796C586.463 219.257 585.511 221.794 583.929 223.749C582.355 225.696 579.701 226.679 575.945 226.679C570.657 226.679 567.058 224.22 565.144 219.29C564.099 216.66 563.568 213.179 563.568 208.847C563.568 204.302 564.099 200.658 565.144 197.904C567.133 192.733 570.83 190.14 576.219 190.14Z" fill="#141685"/>
<path d="M542.462 177.059C508.811 177.059 510.802 207.449 510.802 207.449V238.32H526.073V209.364C526.073 204.62 526.662 201.108 527.824 198.822C529.923 194.774 534.013 192.742 540.122 192.742C540.581 192.742 541.186 192.768 541.932 192.802C542.674 192.839 543.52 192.907 544.491 193.022V177.175C543.815 177.128 543.374 177.109 543.185 177.09C542.987 177.072 542.747 177.059 542.462 177.059Z" fill="#141685"/>
<path d="M486.365 222.192C485.725 223.123 485.036 223.923 484.274 224.546C482.117 226.358 479.188 226.91 475.739 226.91C472.474 226.91 469.922 226.405 467.61 224.919C463.799 222.531 461.655 218.488 461.427 212.554H503.68C503.739 207.447 503.577 203.535 503.172 200.812C502.47 196.177 500.927 192.093 498.554 188.577C495.919 184.592 492.566 181.674 488.527 179.82C484.484 177.981 479.941 177.057 474.894 177.057C466.385 177.057 459.478 179.79 454.148 185.255C448.822 190.732 446.146 198.584 446.146 208.833C446.146 219.775 449.1 227.672 455.005 232.524C460.905 237.376 467.724 239.807 475.439 239.807C484.789 239.807 492.068 236.93 497.261 231.173C500.065 228.144 501.821 225.147 502.561 222.193L486.365 222.192ZM465.838 193.189C467.988 190.938 471.003 189.81 474.894 189.81C478.475 189.81 481.47 190.869 483.895 193C486.305 195.123 487.656 198.245 487.929 202.343H461.8C462.346 198.493 463.698 195.445 465.838 193.189Z" fill="#141685"/>
<path d="M440.015 238.315H426.066V202.488C426.066 199.215 425.007 191.429 415.806 191.429C409.671 191.429 405.232 195.942 405.232 202.488V238.315H391.27V202.488C391.27 199.215 390.318 191.429 381.122 191.429C374.88 191.429 370.543 195.942 370.543 202.488V238.315H356.586V202.828C356.586 188.037 366.206 176.852 381.122 176.852C388.526 176.852 394.548 180.022 398.466 185.104C402.586 180.022 408.717 176.852 415.806 176.852C431.034 176.852 440.016 187.583 440.016 202.828V238.315H440.015Z" fill="#141685"/>
<path d="M720.592 158.349C720.592 158.349 705.21 156.674 705.21 169.277L705.199 185.962C703.496 183.175 701.281 180.993 698.548 179.424C695.824 177.85 692.702 177.059 689.178 177.059C681.549 177.059 675.47 179.957 670.906 185.745C666.341 191.539 664.07 199.886 664.07 209.981C664.07 218.739 666.383 225.921 671.014 231.512C675.643 237.097 684.723 239.55 692.784 239.55C720.905 239.55 720.58 214.954 720.58 214.954L720.592 158.349ZM702.275 221.981C700.048 225.241 696.77 226.868 692.486 226.868C688.185 226.868 684.986 225.225 682.88 221.954C680.772 218.674 679.718 213.902 679.718 208.44C679.718 203.372 680.749 199.129 682.826 195.71C684.896 192.294 688.148 190.577 692.587 190.577C695.499 190.577 698.05 191.519 700.256 193.399C703.838 196.513 705.629 202.1 705.629 209.331C705.629 214.506 704.51 218.722 702.275 221.981Z" fill="#141685"/>
<path d="M468.097 337.178C468.097 339.284 467.345 341.095 465.842 342.599C464.352 344.107 462.554 344.86 460.457 344.86H452.83V290.735C452.83 280.209 456.308 273.616 462.031 269.162C465.815 266.217 471.452 263.406 482.01 263.406C489.139 263.406 497.491 266.229 502 271.838C507.061 278.146 509.171 285.174 509.171 294.356C509.171 303.852 506.927 311.513 502.441 317.403C497.953 323.132 492.186 325.985 485.151 325.985C481.411 325.985 478.121 325.306 475.279 323.96C472.274 322.449 469.893 320.118 468.096 316.951V337.178H468.097ZM493.689 295.031C493.689 289.157 492.568 284.644 490.314 281.475C488.072 278.324 484.855 276.728 480.662 276.728C476.626 276.728 473.481 278.323 471.225 281.475C469.138 284.34 468.096 288.87 468.096 295.031C468.096 300.773 469.213 305.047 471.462 307.913C473.7 311.081 476.924 312.659 481.114 312.659C484.999 312.659 488.072 311.081 490.313 307.913C492.568 304.749 493.689 300.469 493.689 295.031Z" fill="#05B0D9"/>
<path d="M610.357 320.992V317.167C607.714 321.389 604.141 324.005 599.661 325.067C595.173 326.111 590.73 325.739 586.328 323.929C581.913 322.13 578.123 318.779 574.962 313.894C571.807 308.987 570.229 302.554 570.229 294.576C570.229 285.256 572.324 277.686 576.507 271.893C580.699 266.103 587.43 263.46 596.689 263.201C605.812 262.955 611.118 265.062 616.311 269.073C621.99 273.47 625.349 280.216 625.349 290.742V322.585C625.371 332.717 618.445 351.497 596.689 349.904C583.209 348.907 575.728 343.267 571.553 330.488H587.648C588.824 332.588 590.621 334.207 593.059 335.327C595.47 336.471 597.911 336.762 600.32 336.235C602.743 335.709 604.95 334.236 606.948 331.838C608.919 329.429 610.058 325.814 610.357 320.992ZM585.218 295.038C585.218 305.42 588.163 311.173 594.042 312.312C599.913 313.421 604.254 312.031 607.048 308.124C608.373 306.48 609.322 303.875 609.913 300.345C610.497 296.812 610.542 293.309 610.025 289.851C609.519 286.381 608.298 283.296 606.384 280.586C604.48 277.883 601.683 276.523 598.007 276.523C593.007 276.523 589.636 278.412 587.869 282.159C586.092 285.929 585.218 290.217 585.218 295.038Z" fill="#05B0D9"/>
<path d="M557.167 267.498C552.199 264.937 546.516 263.639 540.127 263.639C530.29 263.639 523.359 266.254 519.319 271.475C516.785 274.816 515.351 279.08 515.022 284.276H529.718C530.077 281.983 530.793 280.169 531.88 278.83C533.396 277.016 535.971 276.107 539.607 276.107C542.866 276.107 545.324 276.565 547.001 277.497C548.672 278.423 549.518 280.101 549.518 282.535C549.518 284.531 548.426 286.001 546.236 286.947C545.019 287.49 542.993 287.944 540.153 288.307L534.946 288.956C529.035 289.719 524.541 290.997 521.507 292.774C515.938 296.04 513.164 301.319 513.164 308.613C513.164 314.236 514.883 318.588 518.347 321.653C521.792 324.719 526.18 326.011 531.477 326.26C564.681 327.774 564.309 308.407 564.612 304.381V282.092C564.611 274.942 562.134 270.082 557.167 267.498ZM549.449 301.317C549.352 306.514 547.891 310.081 545.094 312.045C542.296 314.002 539.236 314.983 535.915 314.983C533.813 314.983 532.034 314.39 530.573 313.214C529.105 312.037 528.372 310.116 528.372 307.464C528.372 304.495 529.572 302.297 531.968 300.878C533.396 300.047 535.715 299.333 538.964 298.766L542.431 298.109C544.163 297.774 545.523 297.421 546.501 297.036C547.51 296.664 548.48 296.17 549.45 295.546L549.449 301.317Z" fill="#05B0D9"/>
<path d="M683.114 272.409C678.213 266.145 670.778 263.023 660.804 263.023C650.851 263.023 643.415 266.145 638.518 272.409C633.618 278.661 631.17 286.048 631.17 294.583C631.17 303.261 633.619 310.678 638.518 316.853C643.415 323.004 650.851 326.091 660.804 326.091C670.778 326.091 678.214 323.004 683.114 316.853C688.006 310.678 690.449 303.262 690.449 294.583C690.449 286.049 688.006 278.661 683.114 272.409ZM670.976 308.291C668.604 311.511 665.203 313.117 660.766 313.117C656.329 313.117 652.91 311.511 650.523 308.291C648.118 305.082 646.93 300.507 646.93 294.583C646.93 288.66 648.118 284.096 650.523 280.902C652.91 277.698 656.329 276.105 660.766 276.105C665.203 276.105 668.605 277.698 670.976 280.902C673.357 284.095 674.542 288.659 674.542 294.583C674.542 300.507 673.357 305.082 670.976 308.291Z" fill="#05B0D9"/>
</g>
</g>
<defs>
<clipPath id="clip0_405_6">
<rect width="828" height="525" fill="white"/>
</clipPath>
<clipPath id="clip1_405_6">
<rect width="740.842" height="196.875" fill="white" transform="translate(43.5781 153.125)"/>
</clipPath>
</defs>
</svg>
