<?xml version="1.0" encoding="UTF-8"?>
<svg id="Capa_2" data-name="Capa 2" xmlns="http://www.w3.org/2000/svg" viewBox="0 0 77.81 61.7">
  <defs>
    <style>
      .cls-1 {
        fill: #0554f0;
      }

      .cls-2 {
        fill: #ff6450;
      }

      .cls-3 {
        fill: #c5f1f2;
      }
    </style>
  </defs>
  <g id="Capa_1-2" data-name="Capa 1">
    <g>
      <path class="cls-1" d="m52.61,34.67c0-3.89,1.39-7.5,3.75-10.41-1.11-.42-2.5-.69-3.75-.69-3.89,0-7.5,2.08-9.58,5.41-.42.83-1.25,1.25-2.22,1.39-.97,0-1.8-.28-2.36-1.11-4.03-5.41-10.69-8.47-17.77-8.47-9.44,0-17.77,5.69-20.68,13.88,2.92,8.19,11.24,13.88,20.68,13.88,7.08,0,13.74-3.19,17.77-8.47.55-.69,1.39-1.11,2.36-1.11s1.8.55,2.22,1.39c2.08,3.47,5.55,5.41,9.58,5.41,1.25,0,2.5-.28,3.75-.69-2.36-2.92-3.75-6.52-3.75-10.41h0Z"/>
      <g>
        <path class="cls-3" d="m25.76,41.51c1.98,0,3.71-1.07,4.66-2.65.95,1.58,2.68,2.65,4.66,2.65s3.71-1.07,4.66-2.65c.95,1.58,2.68,2.65,4.66,2.65s3.71-1.07,4.66-2.65c.95,1.58,2.68,2.65,4.66,2.65s3.71-1.07,4.66-2.65c.95,1.58,2.68,2.65,4.66,2.65s3.71-1.07,4.66-2.65c.95,1.58,2.68,2.65,4.66,2.65,3,0,5.44-2.44,5.44-5.44,0-.43-.35-.78-.78-.78s-.78.35-.78.78c0,2.14-1.74,3.88-3.88,3.88s-3.88-1.74-3.88-3.88c0-.43-.35-.78-.78-.78s-.78.35-.78.78c0,2.14-1.74,3.88-3.88,3.88s-3.88-1.74-3.88-3.88c0-.43-.35-.78-.78-.78s-.78.35-.78.78c0,2.14-1.74,3.88-3.88,3.88s-3.88-1.74-3.88-3.88c0-.43-.35-.78-.78-.78s-.78.35-.78.78c0,2.14-1.74,3.88-3.88,3.88s-3.88-1.74-3.88-3.88c0-.43-.35-.78-.78-.78s-.78.35-.78.78c0,2.14-1.74,3.88-3.88,3.88s-3.88-1.74-3.88-3.88c0-.43-.35-.78-.78-.78s-.78.35-.78.78c0,2.14-1.74,3.88-3.88,3.88s-3.88-1.74-3.88-3.88c0-.43-.35-.78-.78-.78s-.78.35-.78.78c0,3,2.44,5.44,5.44,5.44Z"/>
        <path class="cls-3" d="m77.03,45.39c-.43,0-.78.35-.78.78,0,2.14-1.74,3.88-3.88,3.88s-3.88-1.74-3.88-3.88c0-.43-.35-.78-.78-.78s-.78.35-.78.78c0,2.14-1.74,3.88-3.88,3.88s-3.88-1.74-3.88-3.88c0-.43-.35-.78-.78-.78s-.78.35-.78.78c0,2.14-1.74,3.88-3.88,3.88s-3.88-1.74-3.88-3.88c0-.43-.35-.78-.78-.78s-.78.35-.78.78c0,2.14-1.74,3.88-3.88,3.88s-3.88-1.74-3.88-3.88c0-.43-.35-.78-.78-.78s-.78.35-.78.78c0,2.14-1.74,3.88-3.88,3.88s-3.88-1.74-3.88-3.88c0-.43-.35-.78-.78-.78s-.78.35-.78.78c0,2.14-1.74,3.88-3.88,3.88s-3.88-1.74-3.88-3.88c0-.43-.35-.78-.78-.78s-.78.35-.78.78c0,3,2.44,5.44,5.44,5.44,1.98,0,3.71-1.07,4.66-2.65.95,1.58,2.68,2.65,4.66,2.65s3.71-1.07,4.66-2.65c.95,1.58,2.68,2.65,4.66,2.65s3.71-1.07,4.66-2.65c.95,1.58,2.68,2.65,4.66,2.65s3.71-1.07,4.66-2.65c.95,1.58,2.68,2.65,4.66,2.65s3.71-1.07,4.66-2.65c.95,1.58,2.68,2.65,4.66,2.65,3,0,5.44-2.44,5.44-5.44,0-.43-.35-.78-.78-.78Z"/>
        <path class="cls-3" d="m77.03,55.49c-.43,0-.78.35-.78.78,0,2.14-1.74,3.88-3.88,3.88s-3.88-1.74-3.88-3.88c0-.43-.35-.78-.78-.78s-.78.35-.78.78c0,2.14-1.74,3.88-3.88,3.88s-3.88-1.74-3.88-3.88c0-.43-.35-.78-.78-.78s-.78.35-.78.78c0,2.14-1.74,3.88-3.88,3.88s-3.88-1.74-3.88-3.88c0-.43-.35-.78-.78-.78s-.78.35-.78.78c0,2.14-1.74,3.88-3.88,3.88s-3.88-1.74-3.88-3.88c0-.43-.35-.78-.78-.78s-.78.35-.78.78c0,2.14-1.74,3.88-3.88,3.88s-3.88-1.74-3.88-3.88c0-.43-.35-.78-.78-.78s-.78.35-.78.78c0,2.14-1.74,3.88-3.88,3.88s-3.88-1.74-3.88-3.88c0-.43-.35-.78-.78-.78s-.78.35-.78.78c0,3,2.44,5.44,5.44,5.44,1.98,0,3.71-1.07,4.66-2.65.95,1.58,2.68,2.65,4.66,2.65s3.71-1.07,4.66-2.65c.95,1.58,2.68,2.65,4.66,2.65s3.71-1.07,4.66-2.65c.95,1.58,2.68,2.65,4.66,2.65s3.71-1.07,4.66-2.65c.95,1.58,2.68,2.65,4.66,2.65s3.71-1.07,4.66-2.65c.95,1.58,2.68,2.65,4.66,2.65,3,0,5.44-2.44,5.44-5.44,0-.43-.35-.78-.78-.78Z"/>
      </g>
      <path class="cls-2" d="m71.39,0c-2.17,0-4.15,1.27-5.07,3.27l-1.07,2.46v-.17c0-3.07-2.49-5.56-5.56-5.56-2.17,0-4.15,1.27-5.07,3.27l-1.21,2.79V.01h-5.29v18.83h5.15s3.24-13.98,5.69-13.98c.97,0,1.24.6,1.24,2.05v11.94h4.74c.42-1.8,3.37-13.98,5.64-13.98.97,0,1.24.6,1.24,2.05v11.94h5.13V5.56c0-3.07-2.49-5.56-5.56-5.56Z"/>
    </g>
  </g>
</svg>