<?xml version="1.0" encoding="UTF-8"?>
<svg id="Capa_2" data-name="Capa 2" xmlns="http://www.w3.org/2000/svg" viewBox="0 0 908.49 108.2">
  <defs>
    <style>
      .cls-1 {
        fill: #fff;
      }
    </style>
  </defs>
  <g id="Capa_1-2" data-name="Capa 1">
    <g>
      <g>
        <path class="cls-1" d="m154.48,108.2H22.19c-4.34,0-8.14-3.08-9.04-7.32L.2,39.86c-.75-3.53.64-7.19,3.53-9.34,2.9-2.15,6.81-2.41,9.96-.67l74.96,41.32,74.28-41.28c3.16-1.75,7.07-1.5,9.98.64,2.91,2.15,4.3,5.82,3.55,9.35l-12.94,61c-.9,4.24-4.7,7.32-9.04,7.32Zm-128.23-14.26h124.16l9.81-46.23-67.07,37.27c-2.8,1.55-6.14,1.56-8.94.02L16.43,47.64l9.82,46.3Z"/>
        <path class="cls-1" d="m25.91,103.57l-11.57-8.34L80.02,4.06l.23-.26C82.37,1.39,85.44,0,88.66,0c3.22,0,6.28,1.39,8.41,3.8l.45.57,64.83,90.89-11.61,8.28L88.64,16.49,25.91,103.57Z"/>
      </g>
      <g>
        <g>
          <path class="cls-1" d="m819.26,50.76c2.73,0,4.9,2.23,4.9,4.96s-2.17,4.9-4.9,4.9-4.9-2.17-4.9-4.9,2.17-4.96,4.9-4.96Z"/>
          <path class="cls-1" d="m837.4,32.77v4.79c.39-.89,2.12-5.35,9.08-5.35,4.18,0,6.85,1.62,8.35,5.35.39-1.45,3.62-5.35,10.19-5.35,6.01,0,9.52,3.28,9.52,11.25v17.15h-8.13v-14.81c0-4.18-2.12-6.12-5.23-6.12-3.51,0-5.46,2.39-5.46,6.01v14.92h-8.13v-14.81c0-4.18-1.78-6.12-4.95-6.12-3.45,0-5.23,2.39-5.23,6.01v14.92h-8.13v-27.84h8.13Z"/>
          <path class="cls-1" d="m885.66,32.77l6.96,8.8,6.96-8.8h8.91l-10.97,13.92,10.97,13.92h-8.91l-6.96-8.85-6.96,8.85h-8.91l11.02-13.92-11.02-13.92h8.91Z"/>
        </g>
        <g>
          <path class="cls-1" d="m357.88,63.25l29.14-2.64-.15-1.17c-.29-4.54-6-6.59-13.47-7.03-9.96-.44-23.72,2.05-28.26,4.25l-4.98-16.99c7.76-4.25,20.94-7.61,31.77-7.61,23.28,0,36.6,9.08,36.6,29.72v46.42h-21.38v-10.69c-6.15,5.56-14.06,10.69-26.5,10.69-13.47,0-23.57-9.66-24.3-20.94-.88-11.27,7.03-22.84,21.52-24.01Zm7.76,27.53c13.86.61,21.52-15.96,21.52-15.96l-20.35,2.78c-7.61,1.02-10.54,3.66-10.54,6.88s3.23,6.03,9.37,6.3Z"/>
          <path class="cls-1" d="m440.48,32.06v13.94c.44-2.19,6-13.45,20.21-13.89,2.49-.15,6,0,9.52.58l-3.07,21.2c-3.37-.44-6.88-.73-9.96-.73-10.4,0-16.69,3.66-16.69,15.35v39.68h-21.38V32.06h21.38Z"/>
          <rect class="cls-1" x="478.29" y="32.06" width="21.38" height="76.14"/>
          <path class="cls-1" d="m531.61,32.06v11.43c.59-1.76,6.44-11.43,20.5-11.43,13.32,0,27.09,8.65,27.09,29.6v46.54h-21.38v-39.51c0-10.26-3.07-17-12.88-17-10.83,0-13.32,7.91-13.32,15.82v40.68h-21.38V32.06h21.38Z"/>
          <path class="cls-1" d="m624.47,32.06c20.79,0,37.78,16.84,37.92,37.63,0,1.46-.15,2.93-.29,4.39h-53.73c1.32,8.2,7.32,14.06,16.11,14.06,6.44,0,11.86-2.78,14.49-7.61l20.35,4.83c-5.71,13.62-19.33,22.84-34.85,22.84-20.5,0-37.19-16.99-37.19-38.07s16.69-38.07,37.19-38.07Zm-15.08,29.72h30.75c-2.49-6.59-8.2-10.98-15.67-10.98s-12.74,4.39-15.08,10.98Z"/>
          <path class="cls-1" d="m694.34,32.06v13.97c.44-2.2,6-13.48,20.21-13.92,2.49-.15,6,0,9.52.59l-3.07,21.24c-3.37-.44-6.88-.73-9.96-.73-10.4,0-16.69,3.66-16.69,15.38v39.61h-21.38V32.06h21.38Z"/>
          <path class="cls-1" d="m764.77,32.06c21.08,0,38.36,16.99,38.36,38.07s-17.28,38.07-38.36,38.07-37.19-16.99-37.19-38.07,16.69-38.07,37.19-38.07Zm0,54.91c10.39,0,17.13-7.32,17.13-16.84,0-10.25-6.74-18.16-17.13-18.16-9.81,0-15.96,7.91-15.96,18.16,0,9.52,6.15,16.84,15.96,16.84Z"/>
          <path class="cls-1" d="m303.25,32.06c-8.75,0-16.77,5.14-20.47,13.2l-4.33,9.94v-.67c0-12.39-10.08-22.46-22.46-22.46-8.75,0-16.77,5.14-20.47,13.2l-4.9,11.26v-24.4h-21.38v76.08h20.8s13.1-56.5,23.01-56.5c3.92,0,4.99,2.42,4.99,8.27l.03,48.23h19.11c1.71-7.26,13.61-56.5,22.79-56.5,3.92,0,4.99,2.42,4.99,8.27v48.23h20.74v-53.68c0-12.39-10.08-22.46-22.46-22.46Z"/>
          <path class="cls-1" d="m478.29,10.69c.13-5.6,5.09-10.56,10.69-10.69,5.72.13,10.56,5.09,10.69,10.69-.13,5.6-4.96,10.56-10.69,10.69-5.6-.13-10.56-5.09-10.69-10.69Z"/>
        </g>
      </g>
    </g>
  </g>
</svg>