<?xml version="1.0" encoding="UTF-8"?>
<svg id="Capa_2" data-name="Capa 2" xmlns="http://www.w3.org/2000/svg" viewBox="0 0 320.19 196.11">
  <defs>
    <style>
      .cls-1 {
        fill: #0554f0;
      }
    </style>
  </defs>
  <g id="Capa_1-2" data-name="Capa 1">
    <g>
      <path class="cls-1" d="m279.98,196.11H40.21c-7.86,0-14.75-5.58-16.38-13.27L.36,72.25c-1.36-6.39,1.16-13.03,6.41-16.93,5.25-3.89,12.34-4.36,18.06-1.22l135.86,74.89,134.63-74.82c5.72-3.18,12.82-2.72,18.08,1.17,5.27,3.89,7.79,10.54,6.43,16.94l-23.46,110.55c-1.63,7.69-8.52,13.27-16.38,13.27Zm-232.4-25.85h225.02l17.78-83.78-121.55,67.56c-5.08,2.81-11.13,2.83-16.2.04L29.78,86.35l17.81,83.91Z"/>
      <path class="cls-1" d="m46.96,187.71l-20.97-15.11L145.02,7.36l.42-.47C149.29,2.51,154.85,0,160.68,0c5.83,0,11.39,2.51,15.24,6.88l.82,1.04,117.5,164.72-21.04,15.01L160.66,29.88,46.96,187.71Z"/>
    </g>
  </g>
</svg>